<svg width="32" height="32" viewBox="0 0 32 32" fill="none" xmlns="http://www.w3.org/2000/svg">
<path d="M19.7592 15.9977L31.2164 4.56715C31.7181 4.06542 32 3.38493 32 2.67537C32 1.96582 31.7181 1.28533 31.2164 0.783599C30.7147 0.281869 30.0342 0 29.3246 0C28.6151 0 27.9346 0.281869 27.4329 0.783599L16.0023 12.2408L4.57169 0.783599C4.06996 0.281869 3.38947 -5.28658e-09 2.67992 0C1.97037 5.28658e-09 1.28988 0.281869 0.788146 0.783599C0.286416 1.28533 0.00454719 1.96582 0.00454719 2.67537C0.00454718 3.38493 0.286416 4.06542 0.788146 4.56715L12.2454 15.9977L0.788146 27.4283C0.538409 27.676 0.340189 27.9707 0.204917 28.2954C0.0696452 28.6201 0 28.9683 0 29.3201C0 29.6718 0.0696452 30.0201 0.204917 30.3448C0.340189 30.6695 0.538409 30.9642 0.788146 31.2119C1.03584 31.4616 1.33054 31.6598 1.65523 31.7951C1.97992 31.9304 2.32818 32 2.67992 32C3.03166 32 3.37992 31.9304 3.70461 31.7951C4.0293 31.6598 4.324 31.4616 4.57169 31.2119L16.0023 19.7546L27.4329 31.2119C27.6806 31.4616 27.9752 31.6598 28.2999 31.7951C28.6246 31.9304 28.9729 32 29.3246 32C29.6764 32 30.0246 31.9304 30.3493 31.7951C30.674 31.6598 30.9687 31.4616 31.2164 31.2119C31.4661 30.9642 31.6644 30.6695 31.7996 30.3448C31.9349 30.0201 32.0045 29.6718 32.0045 29.3201C32.0045 28.9683 31.9349 28.6201 31.7996 28.2954C31.6644 27.9707 31.4661 27.676 31.2164 27.4283L19.7592 15.9977Z" fill="#0A0A0A"/>
</svg>
