<svg width="25" height="25" viewBox="0 0 25 25" fill="none" xmlns="http://www.w3.org/2000/svg">
<path d="M5.02642 19.2712C6.28705 18.4725 7.53262 17.8709 8.76313 17.4663C9.99365 17.0618 11.3296 16.8595 12.771 16.8595C14.2125 16.8595 15.5559 17.0642 16.8012 17.4735C18.0466 17.8829 19.2948 18.4821 20.5458 19.2712C21.42 18.1817 22.0393 17.0955 22.4037 16.0126C22.7681 14.9296 22.9503 13.7825 22.9503 12.5712C22.9503 9.68155 21.9763 7.26258 20.0283 5.31433C18.0803 3.36611 15.6617 2.392 12.7723 2.392C9.88295 2.392 7.46386 3.36611 5.51504 5.31433C3.56621 7.26258 2.5918 9.68155 2.5918 12.5712C2.5918 13.7821 2.77788 14.9284 3.15004 16.0102C3.52222 17.092 4.14768 18.179 5.02642 19.2712ZM12.7654 13.5256C11.589 13.5256 10.6007 13.1234 9.80041 12.319C9.00016 11.5147 8.60004 10.5259 8.60004 9.35258C8.60004 8.17929 9.00203 7.19114 9.80601 6.38812C10.61 5.58509 11.6002 5.18357 12.7766 5.18357C13.9531 5.18357 14.9414 5.58696 15.7417 6.39373C16.5419 7.20048 16.942 8.1905 16.942 9.36379C16.942 10.5371 16.5401 11.524 15.7361 12.3246C14.9321 13.1253 13.9419 13.5256 12.7654 13.5256ZM12.7588 24.8032C11.0695 24.8032 9.47931 24.4826 7.98823 23.8413C6.49713 23.2 5.19875 22.323 4.09307 21.2101C2.98737 20.0973 2.11861 18.799 1.48679 17.315C0.854972 15.8311 0.539062 14.245 0.539062 12.557C0.539062 10.8689 0.860225 9.2825 1.50255 7.79777C2.14487 6.31304 3.0218 5.01994 4.13332 3.91846C5.24484 2.81698 6.54274 1.94387 8.02701 1.29913C9.51129 0.654399 11.0977 0.332031 12.7861 0.332031C14.4746 0.332031 16.0609 0.654399 17.5452 1.29913C19.0295 1.94387 20.3223 2.81698 21.4238 3.91846C22.5253 5.01994 23.3984 6.31442 24.0432 7.8019C24.6879 9.28936 25.0103 10.8765 25.0103 12.5632C25.0103 14.25 24.6879 15.8347 24.0432 17.3175C23.3984 18.8003 22.5253 20.0974 21.4238 21.209C20.3223 22.3205 19.0266 23.1974 17.5365 23.8397C16.0464 24.4821 14.4539 24.8032 12.7588 24.8032Z" fill="#407BFF"/>
</svg>
