<svg width="70" height="70" viewBox="0 0 70 70" fill="none" xmlns="http://www.w3.org/2000/svg">
<circle cx="35" cy="35" r="33" fill="#846BFF" fill-opacity="0.1" stroke="#846BFF" stroke-width="4"/>
<mask id="path-2-outside-1_218_238" maskUnits="userSpaceOnUse" x="18" y="17" width="34" height="35" fill="black">
<rect fill="white" x="18" y="17" width="34" height="35"/>
<path fill-rule="evenodd" clip-rule="evenodd" d="M35.0007 34.9997C31.4536 34.9997 28.5705 32.1293 28.5705 28.5998C28.5705 25.0703 31.4536 22.1999 35.0007 22.1999C38.5479 22.1999 41.431 25.0703 41.431 28.5998C41.431 32.1293 38.5479 34.9997 35.0007 34.9997ZM41.0422 36.0764C42.3642 35.0237 43.3837 33.6396 43.9969 32.0649C44.6102 30.4903 44.7952 28.7812 44.5333 27.1117C43.8981 22.915 40.391 19.5568 36.1559 19.0672C30.3128 18.3904 25.3561 22.9183 25.3561 28.5998C25.3561 31.6237 26.7641 34.318 28.9593 36.0764C23.5642 38.094 19.625 42.8315 19.0075 49.225C18.9859 49.4492 19.0113 49.6756 19.0821 49.8894C19.153 50.1032 19.2676 50.2999 19.4188 50.4669C19.57 50.6339 19.7544 50.7674 19.9602 50.8591C20.1659 50.9508 20.3886 50.9986 20.6138 50.9993C21.0087 51.0025 21.3905 50.8582 21.6844 50.5945C21.9783 50.3307 22.1631 49.9667 22.2026 49.5738C22.8474 42.4331 28.3401 38.1996 35.0007 38.1996C41.6614 38.1996 47.1541 42.4331 47.7989 49.5738C47.8383 49.9667 48.0232 50.3307 48.3171 50.5945C48.611 50.8582 48.9928 51.0025 49.3877 50.9993C50.3412 50.9993 51.0836 50.1705 50.9924 49.225C50.3764 42.8315 46.4373 38.094 41.0406 36.0764"/>
</mask>
<path fill-rule="evenodd" clip-rule="evenodd" d="M35.0007 34.9997C31.4536 34.9997 28.5705 32.1293 28.5705 28.5998C28.5705 25.0703 31.4536 22.1999 35.0007 22.1999C38.5479 22.1999 41.431 25.0703 41.431 28.5998C41.431 32.1293 38.5479 34.9997 35.0007 34.9997ZM41.0422 36.0764C42.3642 35.0237 43.3837 33.6396 43.9969 32.0649C44.6102 30.4903 44.7952 28.7812 44.5333 27.1117C43.8981 22.915 40.391 19.5568 36.1559 19.0672C30.3128 18.3904 25.3561 22.9183 25.3561 28.5998C25.3561 31.6237 26.7641 34.318 28.9593 36.0764C23.5642 38.094 19.625 42.8315 19.0075 49.225C18.9859 49.4492 19.0113 49.6756 19.0821 49.8894C19.153 50.1032 19.2676 50.2999 19.4188 50.4669C19.57 50.6339 19.7544 50.7674 19.9602 50.8591C20.1659 50.9508 20.3886 50.9986 20.6138 50.9993C21.0087 51.0025 21.3905 50.8582 21.6844 50.5945C21.9783 50.3307 22.1631 49.9667 22.2026 49.5738C22.8474 42.4331 28.3401 38.1996 35.0007 38.1996C41.6614 38.1996 47.1541 42.4331 47.7989 49.5738C47.8383 49.9667 48.0232 50.3307 48.3171 50.5945C48.611 50.8582 48.9928 51.0025 49.3877 50.9993C50.3412 50.9993 51.0836 50.1705 50.9924 49.225C50.3764 42.8315 46.4373 38.094 41.0406 36.0764" fill="#846BFF"/>
<path d="M44.5333 27.1117L43.5446 27.2614L43.5454 27.2667L44.5333 27.1117ZM36.1559 19.0672L36.0409 20.0605L36.0411 20.0605L36.1559 19.0672ZM28.9593 36.0764L29.3095 37.013L30.9584 36.3964L29.5844 35.2959L28.9593 36.0764ZM19.0075 49.225L18.0121 49.1288L18.0121 49.1291L19.0075 49.225ZM20.6138 50.9993L20.6219 49.9994L20.6171 49.9993L20.6138 50.9993ZM22.2026 49.5738L23.1976 49.6737L23.1985 49.6637L22.2026 49.5738ZM47.7989 49.5738L46.8029 49.6637L46.8039 49.6737L47.7989 49.5738ZM49.3877 50.9993V49.9993L49.3796 49.9994L49.3877 50.9993ZM50.9924 49.225L49.997 49.3209L49.997 49.321L50.9924 49.225ZM35.0007 33.9997C32.0015 33.9997 29.5705 31.5727 29.5705 28.5998H27.5705C27.5705 32.686 30.9057 35.9997 35.0007 35.9997V33.9997ZM29.5705 28.5998C29.5705 25.6269 32.0015 23.1999 35.0007 23.1999V21.1999C30.9057 21.1999 27.5705 24.5136 27.5705 28.5998H29.5705ZM35.0007 23.1999C38 23.1999 40.431 25.6269 40.431 28.5998H42.431C42.431 24.5136 39.0958 21.1999 35.0007 21.1999V23.1999ZM40.431 28.5998C40.431 31.5727 38 33.9997 35.0007 33.9997V35.9997C39.0958 35.9997 42.431 32.686 42.431 28.5998H40.431ZM41.6651 36.8587C43.1253 35.696 44.2514 34.1672 44.9288 32.4278L43.0651 31.7021C42.516 33.1121 41.6031 34.3515 40.4193 35.2941L41.6651 36.8587ZM44.9288 32.4278C45.6061 30.6885 45.8105 28.8007 45.5213 26.9567L43.5454 27.2667C43.7799 28.7616 43.6142 30.292 43.0651 31.7021L44.9288 32.4278ZM45.5221 26.9621C44.8186 22.314 40.949 18.6146 36.2708 18.0738L36.0411 20.0605C39.8331 20.4989 42.9777 23.5161 43.5446 27.2614L45.5221 26.9621ZM36.271 18.0738C29.8323 17.328 24.3561 22.3221 24.3561 28.5998H26.3561C26.3561 23.5145 30.7933 19.4527 36.0409 20.0605L36.271 18.0738ZM24.3561 28.5998C24.3561 31.942 25.9137 34.9181 28.3341 36.8569L29.5844 35.2959C27.6145 33.7179 26.3561 31.3054 26.3561 28.5998H24.3561ZM28.609 35.1397C22.8644 37.288 18.6673 42.346 18.0121 49.1288L20.0028 49.3211C20.5828 43.317 24.264 38.8999 29.3095 37.013L28.609 35.1397ZM18.0121 49.1291C17.9771 49.4918 18.0183 49.8579 18.1329 50.2038L20.0314 49.575C20.0043 49.4932 19.9946 49.4066 20.0029 49.3208L18.0121 49.1291ZM18.1329 50.2038C18.2475 50.5498 18.433 50.868 18.6775 51.1381L20.1602 49.7958C20.1023 49.7319 20.0585 49.6567 20.0314 49.575L18.1329 50.2038ZM18.6775 51.1381C18.9223 51.4084 19.2206 51.6243 19.5532 51.7725L20.3672 49.9457C20.2882 49.9105 20.2178 49.8594 20.1602 49.7958L18.6775 51.1381ZM19.5532 51.7725C19.8858 51.9208 20.246 51.9981 20.6105 51.9993L20.6171 49.9993C20.5312 49.9991 20.446 49.9808 20.3672 49.9457L19.5532 51.7725ZM20.6058 51.9993C21.2498 52.0045 21.8727 51.7691 22.3522 51.3388L21.0166 49.8502C20.9083 49.9473 20.7676 50.0005 20.6219 49.9994L20.6058 51.9993ZM22.3522 51.3388C22.8318 50.9085 23.1332 50.3146 23.1976 49.6737L21.2076 49.4738C21.193 49.6187 21.1249 49.753 21.0166 49.8502L22.3522 51.3388ZM23.1985 49.6637C23.7914 43.0983 28.795 39.1996 35.0007 39.1996V37.1996C27.8851 37.1996 21.9034 41.7679 21.2066 49.4838L23.1985 49.6637ZM35.0007 39.1996C41.2064 39.1996 46.2101 43.0983 46.8029 49.6637L48.7948 49.4838C48.0981 41.7679 42.1164 37.1996 35.0007 37.1996V39.1996ZM46.8039 49.6737C46.8683 50.3146 47.1697 50.9085 47.6492 51.3388L48.9849 49.8502C48.8766 49.753 48.8084 49.6187 48.7939 49.4738L46.8039 49.6737ZM47.6492 51.3388C48.1288 51.7691 48.7517 52.0045 49.3957 51.9993L49.3796 49.9994C49.2339 50.0005 49.0932 49.9473 48.9849 49.8502L47.6492 51.3388ZM49.3877 51.9993C50.9386 51.9993 52.135 50.6549 51.9878 49.129L49.997 49.321C50.0323 49.6862 49.7439 49.9993 49.3877 49.9993V51.9993ZM51.9878 49.1291C51.3343 42.346 47.137 37.2879 41.3908 35.1397L40.6904 37.0131C45.7376 38.9 49.4186 43.317 49.997 49.3209L51.9878 49.1291Z" fill="#846BFF" mask="url(#path-2-outside-1_218_238)"/>
</svg>
