<svg width="184" height="101" viewBox="0 0 184 101" fill="none" xmlns="http://www.w3.org/2000/svg">
<path d="M154.746 100.985C152.619 100.985 150.734 100.531 149.09 99.6228C147.446 98.7145 146.156 97.437 145.221 95.7906C144.285 94.1442 143.818 92.2423 143.818 90.0849C143.818 87.8991 144.271 85.9546 145.178 84.2514C146.114 82.5482 147.389 81.2282 149.005 80.2915C150.649 79.3263 152.577 78.8438 154.788 78.8438C156.857 78.8438 158.686 79.2979 160.273 80.2063C161.861 81.1147 163.094 82.3637 163.973 83.9534C164.88 85.5146 165.333 87.2604 165.333 89.1907C165.333 89.503 165.319 89.8294 165.291 90.17C165.291 90.5107 165.277 90.8655 165.248 91.2345H149.218C149.331 92.881 149.898 94.1726 150.919 95.1093C151.967 96.0461 153.229 96.5145 154.703 96.5145C155.809 96.5145 156.73 96.2732 157.467 95.7906C158.232 95.2797 158.799 94.6268 159.168 93.8319H164.695C164.299 95.1661 163.632 96.3867 162.697 97.4938C161.79 98.5725 160.656 99.4241 159.295 100.049C157.963 100.673 156.446 100.985 154.746 100.985ZM154.788 83.2721C153.456 83.2721 152.279 83.6553 151.259 84.4217C150.238 85.1598 149.586 86.2953 149.303 87.8281H159.806C159.721 86.4372 159.21 85.3301 158.275 84.5069C157.339 83.6837 156.177 83.2721 154.788 83.2721Z" fill="black"/>
<path d="M135.195 100.474V69.8167H140.637V100.474H135.195Z" fill="black"/>
<path d="M125.891 100.474V69.8167H131.334V100.474H125.891Z" fill="black"/>
<path d="M119.19 76.0759C118.198 76.0759 117.376 75.7779 116.724 75.1817C116.1 74.5856 115.788 73.8334 115.788 72.925C115.788 72.0166 116.1 71.2786 116.724 70.7108C117.376 70.1147 118.198 69.8167 119.19 69.8167C120.182 69.8167 120.99 70.1147 121.614 70.7108C122.266 71.2786 122.592 72.0166 122.592 72.925C122.592 73.8334 122.266 74.5856 121.614 75.1817C120.99 75.7779 120.182 76.0759 119.19 76.0759ZM116.469 100.474V79.3546H121.911V100.474H116.469Z" fill="black"/>
<path d="M100.152 100.474L92.4128 79.3545H98.1107L103.468 95.322L108.826 79.3545H114.524L106.743 100.474H100.152Z" fill="black"/>
<path d="M57.7997 100.474V79.3547H62.6046L63.0723 82.2076C63.7527 81.1857 64.6456 80.3766 65.7512 79.7805C66.8851 79.156 68.1891 78.8438 69.6631 78.8438C72.9231 78.8438 75.2334 80.107 76.5941 82.6334C77.3595 81.4695 78.38 80.547 79.6557 79.8657C80.9597 79.1844 82.377 78.8438 83.9078 78.8438C86.6575 78.8438 88.7694 79.667 90.2435 81.3134C91.7176 82.9598 92.4546 85.3727 92.4546 88.552V100.474H87.0119V89.063C87.0119 87.2462 86.6575 85.8553 85.9488 84.8901C85.2685 83.925 84.2054 83.4424 82.7597 83.4424C81.2856 83.4424 80.0951 83.9817 79.1879 85.0604C78.3092 86.1391 77.8698 87.6436 77.8698 89.5739V100.474H72.427V89.063C72.427 87.2462 72.0727 85.8553 71.364 84.8901C70.6553 83.925 69.5639 83.4424 68.0898 83.4424C66.6441 83.4424 65.4677 83.9817 64.5606 85.0604C63.6818 86.1391 63.2424 87.6436 63.2424 89.5739V100.474H57.7997Z" fill="black"/>
<path d="M42.4883 100.985C40.6741 100.985 39.1858 100.702 38.0236 100.134C36.8613 99.5377 35.9967 98.757 35.4298 97.7919C34.8628 96.8267 34.5793 95.7622 34.5793 94.5984C34.5793 92.6397 35.3447 91.05 36.8755 89.8294C38.4063 88.6088 40.7024 87.9985 43.764 87.9985H49.1217V87.4875C49.1217 86.0398 48.7106 84.9753 47.8885 84.294C47.0665 83.6127 46.0459 83.2721 44.827 83.2721C43.7214 83.2721 42.7576 83.5418 41.9355 84.0811C41.1135 84.5921 40.6032 85.3585 40.4048 86.3804H35.0896C35.2313 84.8475 35.7416 83.5134 36.6204 82.3779C37.5275 81.2424 38.6897 80.3766 40.1071 79.7805C41.5245 79.156 43.112 78.8438 44.8695 78.8438C47.8744 78.8438 50.2414 79.596 51.9706 81.1005C53.6998 82.605 54.5644 84.734 54.5644 87.4875V100.474H49.9296L49.4193 97.068C48.7957 98.2035 47.9169 99.1403 46.783 99.8783C45.6774 100.616 44.2459 100.985 42.4883 100.985ZM43.7214 96.7274C45.2806 96.7274 46.4853 96.2164 47.3358 95.1945C48.2145 94.1726 48.7673 92.9094 48.9941 91.4049H44.3593C42.9135 91.4049 41.8788 91.6745 41.2552 92.2139C40.6316 92.7249 40.3197 93.3636 40.3197 94.13C40.3197 94.9532 40.6316 95.5919 41.2552 96.0461C41.8788 96.5003 42.7009 96.7274 43.7214 96.7274Z" fill="black"/>
<path d="M16.6997 100.474V70.6682H35.9194V75.054H22.1424V83.3997H33.283V87.7002H22.1424V100.474H16.6997Z" fill="black"/>
<path fill-rule="evenodd" clip-rule="evenodd" d="M124.185 32.224C124.185 28.1634 121.183 25.8848 118.089 24.8251C114.997 23.766 111.099 23.5909 107.377 23.9585C106.691 24.0262 106.002 24.1133 105.315 24.2191C106.271 22.8913 107.087 21.5264 107.75 20.1848C108.961 17.7328 109.747 15.1884 109.875 12.9086C109.998 10.7244 109.523 8.11007 107.349 6.57188C104.98 4.89489 102.232 5.7425 100.378 6.80725C98.3951 7.94653 96.4668 9.82419 94.8679 11.9832C93.0956 14.3763 91.4951 17.4484 90.7513 20.6936C89.6133 18.608 88.2811 16.6321 86.8457 14.9271C84.7339 12.4186 82.1518 10.2024 79.3847 9.36932C77.9428 8.93517 76.3616 8.85346 74.8073 9.41526C73.2511 9.97776 71.9916 11.0879 71.0222 12.5586C70.0691 14.0045 69.6565 15.5882 69.7946 17.2037C69.9289 18.7746 70.5669 20.1966 71.4137 21.4223C73.076 23.8286 75.8173 25.8798 78.7224 27.4744C79.767 28.0478 80.8638 28.5791 81.9859 29.0598C79.2132 29.7132 76.5641 30.6675 74.274 31.7967C71.5891 33.1206 69.1579 34.8004 67.5857 36.7496C65.9943 38.7227 64.9708 41.456 66.4082 44.2347C67.8204 46.9646 70.6473 47.8202 73.2179 47.8102C75.8074 47.8001 78.7297 46.9597 81.5365 45.6264C83.46 44.7127 85.4297 43.5186 87.3045 42.0836C85.4777 48.3578 84.6638 53.9261 84.3916 60.7992V63.1647H88.6888L88.7756 60.9728C88.9717 56.0221 89.4548 51.807 90.4467 47.4319C90.509 47.7047 90.5749 47.9743 90.6443 48.2402C91.2478 50.5501 92.19 52.844 93.658 54.518C95.2246 56.3044 97.4705 57.4321 100.216 56.9145C103.26 56.3406 104.633 53.5382 105.172 51.2425C105.752 48.7739 105.7 45.7586 105.135 42.7814C104.871 41.39 104.479 39.935 103.949 38.4907C105.239 38.9267 106.552 39.29 107.852 39.5703C111.419 40.3397 115.2 40.5519 118.242 39.663C119.792 39.2105 121.298 38.4275 122.428 37.1351C123.593 35.8014 124.185 34.1189 124.185 32.224ZM103.029 17.8531C101.475 20.9998 98.9445 24.186 95.808 26.38C94.986 23.0719 96.4714 18.6642 99.0988 15.1165C100.41 13.3458 101.827 12.0464 103.001 11.3723C103.832 10.8946 104.222 10.8836 104.34 10.8987C104.374 10.9366 104.43 11.0187 104.487 11.1875C104.583 11.4703 104.657 11.9351 104.619 12.6137C104.542 13.9818 104.032 15.8244 103.029 17.8531ZM104.38 10.9079C104.38 10.9079 104.375 10.9072 104.365 10.9032C104.375 10.9055 104.38 10.9079 104.38 10.9079ZM95.2741 34.4291C95.2812 34.3898 95.293 34.3432 95.3116 34.2895C97.6395 36.5633 99.2636 40.0781 99.9626 43.7628C100.432 46.2378 100.414 48.478 100.047 50.038C99.8639 50.817 99.6245 51.2964 99.4327 51.5503C99.3432 51.6687 99.2804 51.7167 99.2582 51.7315C99.2524 51.7354 99.2484 51.7377 99.2462 51.7388L99.2438 51.7401L99.2433 51.7403L99.2408 51.7408C98.6799 51.8466 98.2136 51.7277 97.6165 51.0468C96.9208 50.2536 96.2477 48.8594 95.7383 46.9095C94.7275 43.0406 94.625 38.025 95.2741 34.4291ZM107.894 29.1978C105.128 29.471 102.38 30.1009 100.118 30.9674C100.146 30.9845 100.174 31.0017 100.202 31.0189C102.686 32.5289 105.851 33.7529 108.962 34.4239C112.126 35.1062 114.918 35.1493 116.766 34.6095C117.662 34.3478 118.179 33.9955 118.463 33.6708C118.711 33.3873 118.92 32.9708 118.92 32.224C118.92 31.4186 118.487 30.5264 116.383 29.8057C114.277 29.0844 111.217 28.8696 107.894 29.1978ZM87.2147 25.3946C86.0461 22.8042 84.4929 20.3072 82.818 18.3177C80.9547 16.1044 79.1849 14.8074 77.8669 14.4105C77.2662 14.2297 76.8716 14.2673 76.5971 14.3665C76.3245 14.465 75.9025 14.7211 75.418 15.4561C75.0806 15.9679 75.0084 16.3816 75.0404 16.7551C75.0761 17.1731 75.2631 17.7317 75.7455 18.43C76.7415 19.8718 78.6751 21.4427 81.2558 22.8592C83.1092 23.8766 85.1733 24.7468 87.2147 25.3946ZM76.6024 36.5186C80.1307 34.7788 84.5873 33.5734 88.7151 33.4038C86.18 36.6118 82.696 39.2471 79.2775 40.8709C76.8938 42.0032 74.7556 42.5394 73.1974 42.5455C71.6202 42.5516 71.2122 42.0626 71.0845 41.8158C70.9821 41.6178 70.7976 41.1535 71.6837 40.0549C72.589 38.9325 74.2736 37.6669 76.6024 36.5186Z" fill="url(#paint0_linear_219_654)"/>
<defs>
<linearGradient id="paint0_linear_219_654" x1="117.718" y1="-0.548189" x2="86.5865" y2="59.1012" gradientUnits="userSpaceOnUse">
<stop stop-color="#6C63FF"/>
<stop offset="1" stop-color="#9671FF"/>
</linearGradient>
</defs>
</svg>
