<svg width="272" height="68" viewBox="0 0 272 68" fill="none" xmlns="http://www.w3.org/2000/svg">
<path fill-rule="evenodd" clip-rule="evenodd" d="M67.2323 30.5153C67.2323 25.8571 63.7794 23.2432 60.2218 22.0275C56.6662 20.8125 52.1833 20.6117 47.9028 21.0335C47.1146 21.1111 46.3222 21.211 45.5317 21.3324C46.6317 19.8092 47.5698 18.2434 48.3319 16.7044C49.7248 13.8915 50.629 10.9727 50.7761 8.35745C50.917 5.8518 50.3706 2.85273 47.8716 1.08818C45.147 -0.835596 41.9861 0.136752 39.8548 1.35819C37.5744 2.66513 35.3569 4.81911 33.5181 7.29584C31.48 10.0411 29.6396 13.5653 28.7842 17.2881C27.4755 14.8956 25.9435 12.6289 24.2928 10.6729C21.8644 7.79535 18.8951 5.25302 15.713 4.2973C14.0547 3.79926 12.2364 3.70552 10.4491 4.35C8.65951 4.99527 7.21108 6.26878 6.09624 7.95593C5.00021 9.61463 4.52574 11.4313 4.68459 13.2845C4.83907 15.0867 5.57273 16.7179 6.54647 18.124C8.45807 20.8845 11.6105 23.2374 14.9513 25.0667C16.1525 25.7245 17.4139 26.334 18.7042 26.8855C15.5156 27.635 12.4693 28.7297 9.83573 30.0251C6.74821 31.5438 3.95236 33.4709 2.14439 35.7069C0.314341 37.9703 -0.862688 41.1059 0.790309 44.2935C2.41426 47.4252 5.6652 48.4066 8.62125 48.3951C11.5991 48.3836 14.9597 47.4195 18.1875 45.89C20.3994 44.8419 22.6645 43.472 24.8205 41.8258C22.7197 49.0234 21.7838 55.4111 21.4707 63.2956V66.0093H26.4123L26.5122 63.4948C26.7376 57.8155 27.2932 52.9801 28.4339 47.9612C28.5056 48.2742 28.5813 48.5834 28.6612 48.8884C29.3551 51.5382 30.4386 54.1697 32.1269 56.0901C33.9284 58.1394 36.5111 59.433 39.6685 58.8392C43.1688 58.1809 44.7473 54.9661 45.3678 52.3326C46.035 49.5007 45.9749 46.0416 45.3253 42.6263C45.0218 41.0302 44.5708 39.3611 43.9608 37.7042C45.4444 38.2044 46.9546 38.6211 48.4493 38.9426C52.5519 39.8253 56.8992 40.0687 60.398 39.0491C62.1796 38.5299 63.9123 37.6316 65.2111 36.149C66.5512 34.6192 67.2323 32.6891 67.2323 30.5153ZM42.9036 14.0296C41.1161 17.6393 38.2061 21.2944 34.5993 23.8112C33.654 20.0163 35.3622 14.96 38.3836 10.8902C39.8917 8.85892 41.5215 7.36834 42.8709 6.59499C43.827 6.04708 44.2755 6.03444 44.4107 6.05173C44.4495 6.09526 44.5138 6.18938 44.5795 6.38299C44.6898 6.70751 44.7749 7.24068 44.7311 8.01917C44.6428 9.5886 44.0561 11.7023 42.9036 14.0296ZM44.4566 6.06232C44.4566 6.06232 44.4507 6.06149 44.4401 6.05685C44.4515 6.0595 44.4566 6.06232 44.4566 6.06232ZM33.9853 33.0449C33.9934 32.9999 34.007 32.9464 34.0284 32.8848C36.7054 35.4932 38.573 39.5252 39.377 43.7521C39.917 46.5913 39.8956 49.1612 39.4739 50.9508C39.2634 51.8445 38.9881 52.3944 38.7675 52.6856C38.6646 52.8215 38.5924 52.8765 38.5669 52.8935C38.5602 52.898 38.5556 52.9006 38.5531 52.9019L38.5504 52.9033L38.5498 52.9036L38.5468 52.9042C37.9019 53.0255 37.3656 52.8892 36.6789 52.1081C35.8789 51.1981 35.1049 49.5987 34.519 47.3619C33.3567 42.9237 33.2388 37.1699 33.9853 33.0449ZM48.498 27.0437C45.3174 27.3571 42.1565 28.0797 39.5553 29.0737C39.5874 29.0934 39.6198 29.1131 39.6522 29.1328C42.5089 30.8651 46.1482 32.2692 49.7257 33.0389C53.3639 33.8216 56.5754 33.871 58.7002 33.2518C59.7304 32.9516 60.3257 32.5475 60.652 32.175C60.9368 31.8498 61.1778 31.372 61.1778 30.5153C61.1778 29.5914 60.6792 28.5679 58.2598 27.7411C55.8384 26.9137 52.319 26.6673 48.498 27.0437ZM24.7172 22.6809C23.3734 19.7092 21.5872 16.8448 19.6611 14.5625C17.5184 12.0235 15.4832 10.5356 13.9674 10.0804C13.2768 9.87295 12.8229 9.91604 12.5072 10.0299C12.1938 10.1429 11.7085 10.4366 11.1513 11.2798C10.7634 11.8669 10.6803 12.3415 10.7171 12.77C10.7582 13.2495 10.9732 13.8903 11.5279 14.6914C12.6733 16.3453 14.8969 18.1474 17.8646 19.7724C19.996 20.9394 22.3697 21.9378 24.7172 22.6809ZM12.5134 35.4419C16.5708 33.4461 21.6958 32.0632 26.4426 31.8687C23.5273 35.5488 19.5208 38.5719 15.5897 40.4347C12.8485 41.7336 10.3896 42.3487 8.59776 42.3557C6.78402 42.3627 6.31473 41.8018 6.16791 41.5186C6.05014 41.2915 5.83806 40.7588 6.85703 39.4986C7.89809 38.211 9.83535 36.7592 12.5134 35.4419Z" fill="url(#paint0_linear_218_226)"/>
<path d="M248.291 40.6161C245.992 40.6161 243.954 40.1263 242.177 39.1466C240.399 38.1669 239.005 36.7892 237.993 35.0135C236.982 33.2377 236.476 31.1865 236.476 28.8597C236.476 26.5023 236.966 24.4051 237.947 22.5681C238.959 20.7312 240.338 19.3076 242.085 18.2972C243.862 17.2563 245.946 16.7358 248.337 16.7358C250.574 16.7358 252.551 17.2257 254.268 18.2054C255.984 19.1851 257.317 20.5322 258.267 22.2467C259.248 23.9305 259.738 25.8134 259.738 27.8953C259.738 28.2321 259.723 28.5841 259.692 28.9515C259.692 29.3189 259.677 29.7016 259.646 30.0996H242.315C242.437 31.8753 243.05 33.2684 244.154 34.2787C245.288 35.289 246.651 35.7942 248.245 35.7942C249.44 35.7942 250.436 35.5339 251.233 35.0135C252.061 34.4624 252.674 33.7582 253.072 32.901H259.049C258.62 34.3399 257.899 35.6564 256.888 36.8504C255.907 38.0138 254.681 38.9323 253.21 39.6058C251.77 40.2794 250.13 40.6161 248.291 40.6161ZM248.337 21.5119C246.897 21.5119 245.625 21.9252 244.521 22.7518C243.418 23.5479 242.713 24.7725 242.407 26.4257H253.762C253.67 24.9256 253.118 23.7315 252.107 22.8437C251.095 21.9558 249.839 21.5119 248.337 21.5119Z" fill="black"/>
<path d="M227.153 40.065V7H233.038V40.065H227.153Z" fill="black"/>
<path d="M217.095 40.065V7H222.979V40.065H217.095Z" fill="black"/>
<path d="M209.85 13.7508C208.777 13.7508 207.888 13.4293 207.183 12.7864C206.509 12.1434 206.172 11.3321 206.172 10.3524C206.172 9.37272 206.509 8.57671 207.183 7.9644C207.888 7.32147 208.777 7 209.85 7C210.922 7 211.796 7.32147 212.47 7.9644C213.175 8.57671 213.527 9.37272 213.527 10.3524C213.527 11.3321 213.175 12.1434 212.47 12.7864C211.796 13.4293 210.922 13.7508 209.85 13.7508ZM206.907 40.065V17.2869H212.792V40.065H206.907Z" fill="black"/>
<path d="M189.266 40.0651L180.899 17.2869H187.06L192.852 34.5083L198.645 17.2869H204.805L196.392 40.0651H189.266Z" fill="black"/>
<path d="M143.476 40.0651V17.2869H148.671L149.177 20.3638C149.912 19.2616 150.878 18.3891 152.073 17.7462C153.299 17.0726 154.709 16.7358 156.303 16.7358C159.827 16.7358 162.325 18.0982 163.796 20.823C164.624 19.5678 165.727 18.5728 167.106 17.838C168.516 17.1032 170.049 16.7358 171.704 16.7358C174.676 16.7358 176.96 17.6237 178.553 19.3994C180.147 21.1751 180.944 23.7775 180.944 27.2064V40.0651H175.06V27.7575C175.06 25.7981 174.676 24.2979 173.91 23.257C173.175 22.2161 172.025 21.6956 170.462 21.6956C168.869 21.6956 167.581 22.2773 166.601 23.4407C165.65 24.6041 165.175 26.2267 165.175 28.3086V40.0651H159.291V27.7575C159.291 25.7981 158.908 24.2979 158.142 23.257C157.375 22.2161 156.195 21.6956 154.602 21.6956C153.039 21.6956 151.767 22.2773 150.786 23.4407C149.836 24.6041 149.361 26.2267 149.361 28.3086V40.0651H143.476Z" fill="black"/>
<path d="M126.922 40.6161C124.961 40.6161 123.352 40.31 122.095 39.6977C120.839 39.0547 119.904 38.2128 119.291 37.1719C118.678 36.1309 118.371 34.9828 118.371 33.7276C118.371 31.6151 119.199 29.9006 120.854 28.5841C122.509 27.2677 124.991 26.6094 128.301 26.6094H134.094V26.0583C134.094 24.4969 133.65 23.3489 132.761 22.6141C131.872 21.8793 130.769 21.5119 129.451 21.5119C128.255 21.5119 127.213 21.8028 126.325 22.3844C125.436 22.9355 124.884 23.7622 124.67 24.8643H118.923C119.076 23.2111 119.628 21.7721 120.578 20.5475C121.559 19.3229 122.815 18.3891 124.348 17.7462C125.88 17.0726 127.597 16.7358 129.497 16.7358C132.745 16.7358 135.305 17.5472 137.174 19.1698C139.044 20.7924 139.979 23.0886 139.979 26.0583V40.0651H134.967L134.416 36.3912C133.742 37.6158 132.791 38.6261 131.566 39.4221C130.37 40.2181 128.822 40.6161 126.922 40.6161ZM128.255 36.0238C129.941 36.0238 131.244 35.4727 132.163 34.3705C133.113 33.2684 133.711 31.906 133.956 30.2833H128.945C127.382 30.2833 126.263 30.5742 125.589 31.1559C124.915 31.707 124.578 32.3958 124.578 33.2224C124.578 34.1103 124.915 34.7991 125.589 35.289C126.263 35.7789 127.152 36.0238 128.255 36.0238Z" fill="black"/>
<path d="M99.0405 40.065V7.91846H119.82V12.6486H104.925V21.6496H116.97V26.2879H104.925V40.065H99.0405Z" fill="black"/>
<path d="M91.4914 58.6465V48.5505H88.1474V47.4465H96.1794V48.5505H92.8354V58.6465H91.4914ZM97.9006 58.6465V47.1265H99.2446V52.0705C99.5112 51.5798 99.8899 51.2011 100.381 50.9345C100.871 50.6571 101.405 50.5185 101.981 50.5185C102.898 50.5185 103.634 50.8065 104.189 51.3825C104.743 51.9478 105.021 52.8225 105.021 54.0065V58.6465H103.693V54.1505C103.693 52.4971 103.026 51.6705 101.693 51.6705C100.999 51.6705 100.418 51.9211 99.9486 52.4225C99.4792 52.9131 99.2446 53.6171 99.2446 54.5345V58.6465H97.9006ZM110.785 58.8385C110.027 58.8385 109.355 58.6678 108.769 58.3265C108.182 57.9745 107.718 57.4891 107.377 56.8705C107.046 56.2518 106.881 55.5211 106.881 54.6785C106.881 53.8465 107.046 53.1211 107.377 52.5025C107.707 51.8731 108.166 51.3878 108.753 51.0465C109.35 50.6945 110.038 50.5185 110.817 50.5185C111.585 50.5185 112.246 50.6945 112.801 51.0465C113.366 51.3878 113.798 51.8411 114.097 52.4065C114.395 52.9718 114.545 53.5798 114.545 54.2305C114.545 54.3478 114.539 54.4651 114.529 54.5825C114.529 54.6998 114.529 54.8331 114.529 54.9825H108.209C108.241 55.5905 108.379 56.0971 108.625 56.5025C108.881 56.8971 109.195 57.1958 109.569 57.3985C109.953 57.6011 110.358 57.7025 110.785 57.7025C111.339 57.7025 111.803 57.5745 112.177 57.3185C112.55 57.0625 112.822 56.7158 112.993 56.2785H114.321C114.107 57.0145 113.697 57.6278 113.089 58.1185C112.491 58.5985 111.723 58.8385 110.785 58.8385ZM110.785 51.6545C110.145 51.6545 109.574 51.8518 109.073 52.2465C108.582 52.6305 108.299 53.1958 108.225 53.9425H113.217C113.185 53.2278 112.939 52.6678 112.481 52.2625C112.022 51.8571 111.457 51.6545 110.785 51.6545ZM120.961 58.6465V47.4465H124.641C125.515 47.4465 126.235 47.5905 126.801 47.8785C127.366 48.1665 127.782 48.5558 128.049 49.0465C128.326 49.5371 128.465 50.0918 128.465 50.7105C128.465 51.3185 128.331 51.8678 128.065 52.3585C127.798 52.8491 127.382 53.2438 126.817 53.5425C126.251 53.8305 125.526 53.9745 124.641 53.9745H122.305V58.6465H120.961ZM122.305 52.8385H124.609C125.505 52.8385 126.139 52.6518 126.513 52.2785C126.897 51.8945 127.089 51.3718 127.089 50.7105C127.089 50.0385 126.897 49.5158 126.513 49.1425C126.139 48.7585 125.505 48.5665 124.609 48.5665H122.305V52.8385ZM133.453 58.8385C132.707 58.8385 132.035 58.6678 131.437 58.3265C130.84 57.9851 130.365 57.5051 130.013 56.8865C129.672 56.2571 129.501 55.5211 129.501 54.6785C129.501 53.8358 129.677 53.1051 130.029 52.4865C130.381 51.8571 130.856 51.3718 131.453 51.0305C132.061 50.6891 132.739 50.5185 133.485 50.5185C134.232 50.5185 134.904 50.6891 135.501 51.0305C136.099 51.3718 136.568 51.8571 136.909 52.4865C137.261 53.1051 137.437 53.8358 137.437 54.6785C137.437 55.5211 137.261 56.2571 136.909 56.8865C136.557 57.5051 136.077 57.9851 135.469 58.3265C134.872 58.6678 134.2 58.8385 133.453 58.8385ZM133.453 57.6865C133.912 57.6865 134.339 57.5745 134.733 57.3505C135.128 57.1265 135.448 56.7905 135.693 56.3425C135.939 55.8945 136.061 55.3398 136.061 54.6785C136.061 54.0171 135.939 53.4625 135.693 53.0145C135.459 52.5665 135.144 52.2305 134.749 52.0065C134.355 51.7825 133.933 51.6705 133.485 51.6705C133.027 51.6705 132.6 51.7825 132.205 52.0065C131.811 52.2305 131.491 52.5665 131.245 53.0145C131 53.4625 130.877 54.0171 130.877 54.6785C130.877 55.3398 131 55.8945 131.245 56.3425C131.491 56.7905 131.805 57.1265 132.189 57.3505C132.584 57.5745 133.005 57.6865 133.453 57.6865ZM140.769 58.6465L138.449 50.7105H139.793L141.473 56.9345L143.329 50.7105H144.849L146.721 56.9345L148.385 50.7105H149.745L147.425 58.6465H146.049L144.097 52.1025L142.145 58.6465H140.769ZM154.663 58.8385C153.906 58.8385 153.234 58.6678 152.647 58.3265C152.06 57.9745 151.596 57.4891 151.255 56.8705C150.924 56.2518 150.759 55.5211 150.759 54.6785C150.759 53.8465 150.924 53.1211 151.255 52.5025C151.586 51.8731 152.044 51.3878 152.631 51.0465C153.228 50.6945 153.916 50.5185 154.695 50.5185C155.463 50.5185 156.124 50.6945 156.679 51.0465C157.244 51.3878 157.676 51.8411 157.975 52.4065C158.274 52.9718 158.423 53.5798 158.423 54.2305C158.423 54.3478 158.418 54.4651 158.407 54.5825C158.407 54.6998 158.407 54.8331 158.407 54.9825H152.087C152.119 55.5905 152.258 56.0971 152.503 56.5025C152.759 56.8971 153.074 57.1958 153.447 57.3985C153.831 57.6011 154.236 57.7025 154.663 57.7025C155.218 57.7025 155.682 57.5745 156.055 57.3185C156.428 57.0625 156.7 56.7158 156.871 56.2785H158.199C157.986 57.0145 157.575 57.6278 156.967 58.1185C156.37 58.5985 155.602 58.8385 154.663 58.8385ZM154.663 51.6545C154.023 51.6545 153.452 51.8518 152.951 52.2465C152.46 52.6305 152.178 53.1958 152.103 53.9425H157.095C157.063 53.2278 156.818 52.6678 156.359 52.2625C155.9 51.8571 155.335 51.6545 154.663 51.6545ZM160.364 58.6465V50.7105H161.58L161.692 52.2305C161.938 51.7078 162.311 51.2918 162.812 50.9825C163.314 50.6731 163.932 50.5185 164.668 50.5185V51.9265H164.3C163.831 51.9265 163.399 52.0118 163.004 52.1825C162.61 52.3425 162.295 52.6198 162.06 53.0145C161.826 53.4091 161.708 53.9531 161.708 54.6465V58.6465H160.364ZM174.347 58.8385C173.601 58.8385 172.929 58.6678 172.331 58.3265C171.734 57.9851 171.259 57.5051 170.907 56.8865C170.566 56.2571 170.395 55.5211 170.395 54.6785C170.395 53.8358 170.571 53.1051 170.923 52.4865C171.275 51.8571 171.75 51.3718 172.347 51.0305C172.955 50.6891 173.633 50.5185 174.379 50.5185C175.126 50.5185 175.798 50.6891 176.395 51.0305C176.993 51.3718 177.462 51.8571 177.803 52.4865C178.155 53.1051 178.331 53.8358 178.331 54.6785C178.331 55.5211 178.155 56.2571 177.803 56.8865C177.451 57.5051 176.971 57.9851 176.363 58.3265C175.766 58.6678 175.094 58.8385 174.347 58.8385ZM174.347 57.6865C174.806 57.6865 175.233 57.5745 175.627 57.3505C176.022 57.1265 176.342 56.7905 176.587 56.3425C176.833 55.8945 176.955 55.3398 176.955 54.6785C176.955 54.0171 176.833 53.4625 176.587 53.0145C176.353 52.5665 176.038 52.2305 175.643 52.0065C175.249 51.7825 174.827 51.6705 174.379 51.6705C173.921 51.6705 173.494 51.7825 173.099 52.0065C172.705 52.2305 172.385 52.5665 172.139 53.0145C171.894 53.4625 171.771 54.0171 171.771 54.6785C171.771 55.3398 171.894 55.8945 172.139 56.3425C172.385 56.7905 172.699 57.1265 173.083 57.3505C173.478 57.5745 173.899 57.6865 174.347 57.6865ZM180.792 58.6465V51.8465H179.592V50.7105H180.792V49.3345C180.792 48.5665 180.984 48.0065 181.368 47.6545C181.752 47.3025 182.312 47.1265 183.048 47.1265H183.848V48.2785H183.256C182.851 48.2785 182.563 48.3638 182.392 48.5345C182.221 48.6945 182.136 48.9718 182.136 49.3665V50.7105H184.088V51.8465H182.136V58.6465H180.792ZM193.378 58.6465C192.653 58.6465 192.082 58.4705 191.666 58.1185C191.25 57.7665 191.042 57.1318 191.042 56.2145V51.8465H189.666V50.7105H191.042L191.218 48.8065H192.386V50.7105H194.722V51.8465H192.386V56.2145C192.386 56.7158 192.488 57.0571 192.69 57.2385C192.893 57.4091 193.25 57.4945 193.762 57.4945H194.594V58.6465H193.378ZM196.59 58.6465V47.1265H197.934V52.0705C198.201 51.5798 198.579 51.2011 199.07 50.9345C199.561 50.6571 200.094 50.5185 200.67 50.5185C201.587 50.5185 202.323 50.8065 202.878 51.3825C203.433 51.9478 203.71 52.8225 203.71 54.0065V58.6465H202.382V54.1505C202.382 52.4971 201.715 51.6705 200.382 51.6705C199.689 51.6705 199.107 51.9211 198.638 52.4225C198.169 52.9131 197.934 53.6171 197.934 54.5345V58.6465H196.59ZM209.474 58.8385C208.717 58.8385 208.045 58.6678 207.458 58.3265C206.872 57.9745 206.408 57.4891 206.066 56.8705C205.736 56.2518 205.57 55.5211 205.57 54.6785C205.57 53.8465 205.736 53.1211 206.066 52.5025C206.397 51.8731 206.856 51.3878 207.442 51.0465C208.04 50.6945 208.728 50.5185 209.506 50.5185C210.274 50.5185 210.936 50.6945 211.49 51.0465C212.056 51.3878 212.488 51.8411 212.786 52.4065C213.085 52.9718 213.234 53.5798 213.234 54.2305C213.234 54.3478 213.229 54.4651 213.218 54.5825C213.218 54.6998 213.218 54.8331 213.218 54.9825H206.898C206.93 55.5905 207.069 56.0971 207.314 56.5025C207.57 56.8971 207.885 57.1958 208.258 57.3985C208.642 57.6011 209.048 57.7025 209.474 57.7025C210.029 57.7025 210.493 57.5745 210.866 57.3185C211.24 57.0625 211.512 56.7158 211.682 56.2785H213.01C212.797 57.0145 212.386 57.6278 211.778 58.1185C211.181 58.5985 210.413 58.8385 209.474 58.8385ZM209.474 51.6545C208.834 51.6545 208.264 51.8518 207.762 52.2465C207.272 52.6305 206.989 53.1958 206.914 53.9425H211.906C211.874 53.2278 211.629 52.6678 211.17 52.2625C210.712 51.8571 210.146 51.6545 209.474 51.6545ZM223.026 58.6465L218.818 47.4465H220.274L223.81 57.2225L227.378 47.4465H228.802L224.594 58.6465H223.026ZM231.233 48.9505C230.967 48.9505 230.743 48.8651 230.561 48.6945C230.391 48.5131 230.305 48.2891 230.305 48.0225C230.305 47.7665 230.391 47.5531 230.561 47.3825C230.743 47.2118 230.967 47.1265 231.233 47.1265C231.489 47.1265 231.708 47.2118 231.889 47.3825C232.071 47.5531 232.161 47.7665 232.161 48.0225C232.161 48.2891 232.071 48.5131 231.889 48.6945C231.708 48.8651 231.489 48.9505 231.233 48.9505ZM230.561 58.6465V50.7105H231.905V58.6465H230.561ZM234.406 58.6465V47.1265H235.75V58.6465H234.406ZM238.112 58.6465V47.1265H239.456V58.6465H238.112ZM244.459 58.8385C243.798 58.8385 243.249 58.7265 242.811 58.5025C242.374 58.2785 242.049 57.9798 241.835 57.6065C241.622 57.2331 241.515 56.8278 241.515 56.3905C241.515 55.5798 241.825 54.9558 242.443 54.5185C243.062 54.0811 243.905 53.8625 244.971 53.8625H247.115V53.7665C247.115 53.0731 246.934 52.5505 246.571 52.1985C246.209 51.8358 245.723 51.6545 245.115 51.6545C244.593 51.6545 244.139 51.7878 243.755 52.0545C243.382 52.3105 243.147 52.6891 243.051 53.1905H241.675C241.729 52.6145 241.921 52.1291 242.251 51.7345C242.593 51.3398 243.014 51.0411 243.515 50.8385C244.017 50.6251 244.55 50.5185 245.115 50.5185C246.225 50.5185 247.057 50.8171 247.611 51.4145C248.177 52.0011 248.459 52.7851 248.459 53.7665V58.6465H247.259L247.179 57.2225C246.955 57.6705 246.625 58.0545 246.187 58.3745C245.761 58.6838 245.185 58.8385 244.459 58.8385ZM244.667 57.7025C245.179 57.7025 245.617 57.5691 245.979 57.3025C246.353 57.0358 246.635 56.6891 246.827 56.2625C247.019 55.8358 247.115 55.3878 247.115 54.9185V54.9025H245.083C244.294 54.9025 243.734 55.0411 243.403 55.3185C243.083 55.5851 242.923 55.9211 242.923 56.3265C242.923 56.7425 243.073 57.0785 243.371 57.3345C243.681 57.5798 244.113 57.7025 244.667 57.7025ZM253.772 56.1505C253.324 56.1505 252.913 56.0918 252.54 55.9745L251.74 56.7265C251.857 56.8118 252.001 56.8865 252.172 56.9505C252.353 57.0038 252.609 57.0571 252.94 57.1105C253.27 57.1531 253.734 57.2011 254.332 57.2545C255.398 57.3291 256.161 57.5745 256.62 57.9905C257.078 58.4065 257.308 58.9505 257.308 59.6225C257.308 60.0811 257.18 60.5185 256.924 60.9345C256.678 61.3505 256.294 61.6918 255.772 61.9585C255.26 62.2251 254.598 62.3585 253.788 62.3585C253.073 62.3585 252.438 62.2625 251.884 62.0705C251.329 61.8891 250.897 61.6065 250.588 61.2225C250.278 60.8491 250.124 60.3745 250.124 59.7985C250.124 59.4998 250.204 59.1745 250.364 58.8225C250.524 58.4811 250.822 58.1558 251.26 57.8465C251.025 57.7505 250.822 57.6491 250.652 57.5425C250.492 57.4251 250.342 57.2971 250.204 57.1585V56.7905L251.564 55.4465C250.934 54.9131 250.62 54.2091 250.62 53.3345C250.62 52.8118 250.742 52.3371 250.988 51.9105C251.233 51.4838 251.59 51.1478 252.06 50.9025C252.529 50.6465 253.1 50.5185 253.772 50.5185C254.23 50.5185 254.646 50.5825 255.02 50.7105H257.948V51.7185L256.46 51.7825C256.769 52.2305 256.924 52.7478 256.924 53.3345C256.924 53.8571 256.796 54.3318 256.54 54.7585C256.294 55.1851 255.937 55.5265 255.468 55.7825C255.009 56.0278 254.444 56.1505 253.772 56.1505ZM253.772 55.0465C254.337 55.0465 254.785 54.9025 255.116 54.6145C255.457 54.3158 255.628 53.8891 255.628 53.3345C255.628 52.7905 255.457 52.3745 255.116 52.0865C254.785 51.7878 254.337 51.6385 253.772 51.6385C253.196 51.6385 252.737 51.7878 252.396 52.0865C252.065 52.3745 251.9 52.7905 251.9 53.3345C251.9 53.8891 252.065 54.3158 252.396 54.6145C252.737 54.9025 253.196 55.0465 253.772 55.0465ZM251.436 59.6705C251.436 60.2038 251.66 60.5985 252.108 60.8545C252.556 61.1211 253.116 61.2545 253.788 61.2545C254.449 61.2545 254.977 61.1105 255.372 60.8225C255.777 60.5345 255.98 60.1505 255.98 59.6705C255.98 59.3291 255.841 59.0305 255.564 58.7745C255.286 58.5291 254.774 58.3851 254.028 58.3425C253.441 58.2998 252.934 58.2465 252.508 58.1825C252.07 58.4171 251.782 58.6678 251.644 58.9345C251.505 59.2118 251.436 59.4571 251.436 59.6705ZM262.879 58.8385C262.122 58.8385 261.45 58.6678 260.863 58.3265C260.277 57.9745 259.813 57.4891 259.471 56.8705C259.141 56.2518 258.975 55.5211 258.975 54.6785C258.975 53.8465 259.141 53.1211 259.471 52.5025C259.802 51.8731 260.261 51.3878 260.847 51.0465C261.445 50.6945 262.133 50.5185 262.911 50.5185C263.679 50.5185 264.341 50.6945 264.895 51.0465C265.461 51.3878 265.893 51.8411 266.191 52.4065C266.49 52.9718 266.639 53.5798 266.639 54.2305C266.639 54.3478 266.634 54.4651 266.623 54.5825C266.623 54.6998 266.623 54.8331 266.623 54.9825H260.303C260.335 55.5905 260.474 56.0971 260.719 56.5025C260.975 56.8971 261.29 57.1958 261.663 57.3985C262.047 57.6011 262.453 57.7025 262.879 57.7025C263.434 57.7025 263.898 57.5745 264.271 57.3185C264.645 57.0625 264.917 56.7158 265.087 56.2785H266.415C266.202 57.0145 265.791 57.6278 265.183 58.1185C264.586 58.5985 263.818 58.8385 262.879 58.8385ZM262.879 51.6545C262.239 51.6545 261.669 51.8518 261.167 52.2465C260.677 52.6305 260.394 53.1958 260.319 53.9425H265.311C265.279 53.2278 265.034 52.6678 264.575 52.2625C264.117 51.8571 263.551 51.6545 262.879 51.6545Z" fill="black"/>
<defs>
<linearGradient id="paint0_linear_218_226" x1="59.7948" y1="-7.07968" x2="24.1323" y2="61.4194" gradientUnits="userSpaceOnUse">
<stop stop-color="#6C63FF"/>
<stop offset="1" stop-color="#9671FF"/>
</linearGradient>
</defs>
</svg>
