<svg width="300" height="97" viewBox="0 0 300 97" fill="none" xmlns="http://www.w3.org/2000/svg">
<path d="M13.3883 81.4745C13.2808 81.2932 12.8156 81.4873 12.7301 81.3228C12.6449 81.1589 13.0771 80.9091 13.324 80.3384C13.3685 80.2355 13.6491 79.587 13.4414 79.3869C13.0477 79.0076 11.2459 80.5729 10.6154 80.0606C10.477 79.9482 10.3804 79.7238 9.96157 79.3595C9.79496 79.2145 9.69422 79.1491 9.59672 79.1734C9.45837 79.208 9.44741 79.3931 9.29906 79.7572C9.07658 80.3032 8.94499 80.2702 8.81536 80.7058C8.71914 81.0292 8.74112 81.2172 8.62788 81.2538C8.46765 81.3057 8.32016 80.9627 8.11709 80.9934C7.90986 81.0247 7.78458 81.4241 7.74501 81.7231C7.67075 82.2842 7.87681 82.6545 7.99103 83.0438C8.11514 83.4669 8.1888 84.1103 7.90218 85.0212L5.06519 93.0145C5.69151 91.3743 7.505 86.8781 8.26703 85.2073C8.48702 84.7249 8.72991 84.2357 9.22864 84.0426C9.70881 83.8567 10.3683 83.9677 11.209 83.7652C11.3072 83.7415 11.5796 83.6722 11.6139 83.5119C11.6423 83.3794 11.482 83.3055 11.5066 83.1814C11.5397 83.0149 11.8548 83.0129 12.2421 82.8209C12.5152 82.6855 12.6853 82.5244 12.8317 82.3859C12.8758 82.3442 13.5314 81.7159 13.3883 81.4745Z" fill="#F2F2F2"/>
<path d="M2.22703 85.6825C2.10702 85.6829 2.06809 85.9672 1.96266 85.9617C1.85761 85.9562 1.8597 85.672 1.65087 85.3862C1.61321 85.3347 1.37588 85.0098 1.21773 85.0541C0.917972 85.1379 1.16635 86.4738 0.733019 86.6355C0.637924 86.6709 0.499885 86.6536 0.200228 86.7541C0.0810158 86.794 0.0198294 86.8246 0.00364579 86.8795C-0.0193153 86.9573 0.0683971 87.0161 0.204278 87.194C0.408058 87.4607 0.353908 87.5158 0.530304 87.7051C0.661252 87.8456 0.75987 87.8891 0.745172 87.9552C0.72438 88.0488 0.51348 88.0222 0.46996 88.1308C0.425555 88.2415 0.585414 88.4182 0.72075 88.5239C0.974722 88.7223 1.2159 88.728 1.43994 88.7843C1.68341 88.8454 2.02048 88.9949 2.38484 89.3984L5.48942 93.0971C4.86511 92.3165 3.1816 90.1291 2.58142 89.273C2.40816 89.0259 2.23813 88.7655 2.28727 88.465C2.33457 88.1757 2.57931 87.8841 2.72248 87.413C2.7392 87.358 2.78379 87.2043 2.71503 87.1412C2.65819 87.089 2.57565 87.1464 2.52185 87.0985C2.44969 87.0342 2.53962 86.879 2.55711 86.6335C2.56945 86.4604 2.5395 86.3304 2.51374 86.2186C2.50598 86.1849 2.38678 85.6818 2.22703 85.6825Z" fill="#F2F2F2"/>
<path d="M4.62113 86.2198L4.54883 85.5744L4.58186 85.5255C4.73473 85.2992 4.81264 85.0783 4.81357 84.8685C4.81373 84.8352 4.81217 84.8018 4.81061 84.7679C4.80438 84.6332 4.79659 84.4659 4.88385 84.2708C4.93278 84.162 5.07022 83.9102 5.27685 83.9414C5.33248 83.9492 5.37455 83.9747 5.40649 84.0046C5.41117 83.9972 5.416 83.9897 5.42114 83.9816C5.48549 83.8834 5.53645 83.8413 5.58553 83.8008C5.62324 83.7696 5.6622 83.7375 5.72328 83.6615C5.75008 83.6282 5.77097 83.5989 5.78858 83.5742C5.84203 83.4998 5.91183 83.4109 6.03494 83.4125C6.16645 83.4187 6.23533 83.5275 6.28098 83.5995C6.36248 83.7279 6.39941 83.8204 6.42387 83.8818C6.43276 83.9043 6.44289 83.9295 6.44803 83.9373C6.49041 83.9996 6.83495 83.9414 6.96474 83.9202C7.2563 83.8716 7.50858 83.8295 7.61251 84.0134C7.687 84.1449 7.63168 84.3188 7.44313 84.5441C7.38438 84.6142 7.3219 84.6675 7.26642 84.7093C7.31239 84.7367 7.35352 84.7788 7.37021 84.8448C7.40947 85.0013 7.275 85.1581 6.97067 85.3114C6.89509 85.3497 6.79334 85.4008 6.65076 85.4255C6.5836 85.437 6.52314 85.4398 6.47141 85.4413C6.47031 85.4713 6.4633 85.5037 6.44507 85.537C6.39162 85.6352 6.28037 85.6819 6.11269 85.6707C5.9282 85.6611 5.77627 85.6258 5.64226 85.595C5.52524 85.5682 5.42441 85.5454 5.34526 85.5507C5.19847 85.5626 5.08534 85.6801 4.95258 85.8325L4.62113 86.2198Z" fill="#F2F2F2"/>
<path d="M4.95673 82.3769L4.35075 82.6106L4.29504 82.591C4.03741 82.5006 3.80391 82.4813 3.60079 82.5336C3.5685 82.5419 3.53664 82.5518 3.50417 82.562C3.37553 82.6021 3.21562 82.6521 3.00477 82.6172C2.88715 82.5975 2.60871 82.5284 2.58645 82.3206C2.57988 82.2648 2.59392 82.2176 2.61476 82.1792C2.60634 82.1765 2.59788 82.1738 2.58874 82.1708C2.47745 82.1335 2.42383 82.0949 2.37219 82.0577C2.33248 82.0291 2.29155 81.9996 2.2025 81.9598C2.16344 81.9423 2.12981 81.9295 2.10153 81.9187C2.01592 81.8859 1.9123 81.8409 1.88258 81.7215C1.85525 81.5927 1.94299 81.4985 2.00105 81.436C2.10458 81.3246 2.18474 81.2654 2.23793 81.2262C2.25738 81.2119 2.27923 81.1957 2.28546 81.1888C2.335 81.1319 2.19124 80.8135 2.13782 80.6933C2.01684 80.4236 1.91215 80.1902 2.06365 80.0431C2.17197 79.9377 2.35421 79.9471 2.62 80.0723C2.70273 80.1113 2.77013 80.1583 2.82459 80.2013C2.83946 80.1499 2.86972 80.0994 2.92941 80.0665C3.07078 79.9889 3.25652 80.0792 3.48203 80.3347C3.53828 80.3981 3.61353 80.4835 3.67351 80.6152C3.7017 80.6772 3.71975 80.735 3.73438 80.7846C3.7636 80.7781 3.79673 80.7767 3.83361 80.7859C3.94212 80.8127 4.01557 80.9084 4.04724 81.0734C4.08469 81.2544 4.08917 81.4103 4.09331 81.5477C4.09707 81.6677 4.10064 81.771 4.12584 81.8462C4.17453 81.9852 4.31688 82.0648 4.49797 82.1546L4.95673 82.3769Z" fill="#F2F2F2"/>
<path d="M4.62113 80.4756L4.54883 79.8302L4.58186 79.7812C4.73473 79.555 4.81264 79.334 4.81357 79.1243C4.81373 79.0909 4.81217 79.0576 4.81061 79.0236C4.80438 78.889 4.79659 78.7216 4.88385 78.5265C4.93278 78.4178 5.07022 78.1659 5.27685 78.1971C5.33248 78.2049 5.37455 78.2305 5.40649 78.2604C5.41117 78.2529 5.416 78.2454 5.42114 78.2373C5.48549 78.1391 5.53645 78.0971 5.58553 78.0566C5.62324 78.0254 5.6622 77.9933 5.72328 77.9172C5.75008 77.8839 5.77097 77.8546 5.78858 77.83C5.84203 77.7555 5.91183 77.6667 6.03494 77.6682C6.16645 77.6745 6.23533 77.7832 6.28098 77.8552C6.36248 77.9836 6.39941 78.0762 6.42387 78.1376C6.43276 78.16 6.44289 78.1853 6.44803 78.1931C6.49041 78.2554 6.83495 78.1971 6.96474 78.1759C7.2563 78.1273 7.50858 78.0852 7.61251 78.2691C7.687 78.4006 7.63168 78.5745 7.44313 78.7998C7.38438 78.87 7.3219 78.9232 7.26642 78.965C7.31239 78.9924 7.35352 79.0345 7.37021 79.1006C7.40947 79.257 7.275 79.4138 6.97067 79.5671C6.89509 79.6055 6.79334 79.6566 6.65076 79.6812C6.5836 79.6927 6.52314 79.6955 6.47141 79.6971C6.47031 79.727 6.4633 79.7594 6.44507 79.7928C6.39162 79.8909 6.28037 79.9377 6.11269 79.9265C5.9282 79.9168 5.77627 79.8816 5.64226 79.8507C5.52524 79.8239 5.42441 79.8012 5.34526 79.8065C5.19847 79.8183 5.08534 79.9358 4.95258 80.0882L4.62113 80.4756Z" fill="#F2F2F2"/>
<path d="M5.28177 93.0038L5.14652 92.9191L4.98882 92.9371C4.98633 92.9225 4.97776 92.8888 4.96483 92.8362C4.89424 92.5476 4.67904 91.6693 4.49953 90.2862C4.37424 89.3207 4.30334 88.3281 4.2887 87.3355C4.27405 86.3413 4.32111 85.5887 4.35882 84.9838C4.38733 84.5275 4.42193 84.0931 4.4559 83.6699C4.54628 82.5392 4.63151 81.4712 4.56809 80.2888C4.55407 80.0248 4.52461 79.4754 4.20362 78.8907C4.0174 78.5516 3.76092 78.2506 3.44116 77.9963L3.63999 77.7463C3.99294 78.0274 4.2767 78.3609 4.48348 78.7374C4.83938 79.3856 4.87148 79.9843 4.88691 80.272C4.95142 81.4752 4.86525 82.5536 4.77394 83.6951C4.74028 84.1168 4.70568 84.5494 4.67732 85.0038C4.63993 85.6031 4.59333 86.3491 4.60783 87.3305C4.62216 88.3113 4.69228 89.2918 4.81585 90.2451C4.99318 91.6107 5.20526 92.4759 5.27492 92.7601C5.312 92.9119 5.3198 92.9437 5.28177 93.0038Z" fill="#F2F2F2"/>
<path d="M2.85592 78.5034C2.84283 78.5034 2.82959 78.5031 2.81619 78.5021C2.54443 78.4875 2.29277 78.3248 2.06807 78.0188C1.96273 77.8748 1.90882 77.7105 1.8013 77.383C1.78462 77.3325 1.70359 77.0763 1.65435 76.7239C1.62209 76.4935 1.62615 76.3972 1.6718 76.3122C1.72245 76.2174 1.80441 76.1514 1.89666 76.1068C1.89261 76.0762 1.89588 76.0448 1.90913 76.0127C1.96351 75.8796 2.10811 75.897 2.18634 75.9055C2.22592 75.9104 2.27532 75.917 2.32861 75.9142C2.41244 75.9101 2.45748 75.8852 2.52573 75.8478C2.59102 75.812 2.6722 75.7674 2.79266 75.7428C3.03014 75.6932 3.22912 75.7605 3.29473 75.7827C3.63988 75.8977 3.81004 76.166 4.007 76.4767C4.04627 76.539 4.18106 76.7659 4.27003 77.0769C4.33423 77.3013 4.3252 77.4011 4.30587 77.4752C4.26661 77.6276 4.17389 77.7149 3.93844 77.9075C3.69255 78.1091 3.56913 78.2101 3.46317 78.2715C3.2165 78.4139 3.06161 78.5034 2.85592 78.5034Z" fill="#F2F2F2"/>
<path d="M25.8884 64.8906C29.5266 64.8906 32.4803 67.8443 32.4803 71.4825V73.653H25.8884V64.8906Z" fill="#2F2E41"/>
<path d="M28.461 71.0003C30.2813 71.0003 31.7569 69.5247 31.7569 67.7044C31.7569 65.8841 30.2813 64.4084 28.461 64.4084C26.6407 64.4084 25.165 65.8841 25.165 67.7044C25.165 69.5247 26.6407 71.0003 28.461 71.0003Z" fill="#FFB6B6"/>
<path d="M30.6719 84.5459L27.6172 82.7774C27.6172 82.7774 23.437 78.5902 23.3164 80.5667C23.1958 82.5432 20.6636 89.4724 26.4314 90.5463C32.1993 91.6201 35.8168 89.53 35.8168 89.53L34.1287 86.3145L30.6719 84.5459Z" fill="#2F2E41"/>
<path d="M19.6961 78.0256L17.9861 81.0394L19.8422 88.4932L21.2569 88.033L21.3979 81.277L22.2635 79.536L19.6961 78.0256Z" fill="#FFB6B6"/>
<path d="M28.0595 74.0717C28.0595 74.0717 25.4921 72.5613 24.2895 73.2106C23.087 73.8599 19.1848 78.6511 19.1848 78.6511L22.5567 80.9846L28.0595 74.0717Z" fill="#6C63FF"/>
<path d="M26.6485 90.6549L21.6817 90.2567L21.4661 93.0268L27.1248 92.9426L26.6485 90.6549Z" fill="#FFB6B6"/>
<path d="M30.2696 71.121L26.8933 71.5229L26.4109 73.2111L23.9993 74.015L25.3659 82.6969C25.3659 82.6969 29.2245 83.2597 30.6715 85.2694C32.1185 87.2791 34.691 87.6006 34.691 87.6006V81.2186L34.5302 72.7287L31.1539 72.166L30.2696 71.121Z" fill="#6C63FF"/>
<path d="M33.646 87.681C33.646 87.681 39.2732 87.1987 40.3986 88.3241C41.5241 89.4495 41.926 91.5396 40.5594 92.5043C39.1928 93.469 35.4949 93.2278 35.4949 93.2278L34.7714 89.2084L33.646 87.681Z" fill="#2F2E41"/>
<path d="M36.2988 88.8064L26.009 90.3338L25.9055 93.2546L35.4949 93.2278L36.2988 88.8064Z" fill="#2F2E41"/>
<path d="M37.4243 80.3656L36.9018 83.2194L31.5158 89.0074L30.5913 87.8418L34.2088 82.1342L34.45 80.2048L37.4243 80.3656Z" fill="#FFB6B6"/>
<path d="M25.1024 90.9006C25.1024 90.9006 23.1021 91.0951 22.9087 91.5985C22.7154 92.1019 22.9766 93.1265 22.9766 93.1265L16.6894 92.3807C16.2348 92.3267 15.96 91.8439 16.1543 91.4294C16.5623 90.5586 17.5036 89.3638 19.5627 89.5816C22.7454 89.9183 24.2189 89.2904 24.2189 89.2904L25.8964 90.5522L25.1024 90.9006Z" fill="#2F2E41"/>
<path d="M32.6414 72.4474C32.6414 72.4474 35.6157 72.6082 36.2588 73.814C36.902 75.0198 37.5049 81.1696 37.5049 81.1696L33.405 81.2499L32.6414 72.4474Z" fill="#6C63FF"/>
<path d="M25.7278 86.3547L26.6121 91.2585L29.3453 90.759L27.8179 85.3097L25.7278 86.3547Z" fill="#FFB6B6"/>
<path d="M29.7072 90.0927L26.0093 90.173L26.2504 94.3532C26.2504 94.3532 26.1701 96.6826 28.1798 96.6836C30.1895 96.6845 30.9934 96.8453 30.9934 96.4434C30.9934 96.0414 30.5914 93.6756 30.5914 93.6756L29.7072 91.1377V90.0927Z" fill="#2F2E41"/>
<path d="M28.18 86.7162L25.1252 87.3593C23.1252 82.9653 21.9061 78.7382 21.7489 74.7383C21.7489 74.7383 21.4273 72.2462 23.9194 72.1658C26.4114 72.0855 26.733 75.7833 26.733 75.7833L28.18 86.7162Z" fill="#2F2E41"/>
<path d="M31.1097 90.146C31.8904 89.4291 32.1642 88.4571 31.7215 87.9749C31.2787 87.4928 30.2869 87.683 29.5062 88.3999C28.7256 89.1168 28.4517 90.0889 28.8945 90.571C29.3373 91.0532 30.3291 90.8629 31.1097 90.146Z" fill="#FFB6B6"/>
<path d="M21.0039 90.933C21.6524 90.8436 22.0609 89.9201 21.9162 88.8701C21.7716 87.8201 21.1286 87.0414 20.4801 87.1307C19.8316 87.2201 19.4232 88.1436 19.5678 89.1936C19.7124 90.2436 20.3554 91.0223 21.0039 90.933Z" fill="#FFB6B6"/>
<path d="M34.7712 70.3708C34.6035 69.861 34.2726 69.4147 34.1245 68.899C33.9279 68.2141 33.5093 69.7334 33.4685 69.0221C33.3909 67.67 31.3274 64.1922 30.1493 63.5241C28.9713 62.8561 28.2947 63.0575 27.0946 63.6849C27.0946 63.6849 26.512 63.722 25.7867 64.08C25.0614 64.4381 24.4086 65.0116 24.1265 65.7696C23.9029 66.3705 23.9276 67.0304 23.8529 67.6671C23.6448 69.4411 22.6504 71.1282 22.8638 72.9016C22.9304 73.4549 23.1407 74.027 23.5931 74.3524C24.0455 74.6778 24.7763 74.6424 25.0741 74.1714C25.1757 74.0107 25.2186 73.82 25.3057 73.6509C25.3928 73.4818 25.5501 73.3242 25.7402 73.3295C26.026 73.3374 26.1714 73.7208 26.0587 73.9835C25.9461 74.2462 25.6813 74.4048 25.4327 74.5459C26.0248 74.8122 26.7592 74.7293 27.2769 74.3376C27.7947 73.9459 28.0743 73.2617 27.979 72.6195C27.8447 71.7146 26.5264 71.9019 26.3711 71.0003C26.258 70.344 25.861 69.2458 25.9691 68.5886C26.0773 67.9315 26.5967 68.7272 26.0495 68.3474C26.6515 68.6376 27.9391 66.6524 28.5692 66.4301C29.1994 66.2077 29.7337 65.7263 30.0202 65.1226C30.6886 66.0915 31.2766 65.8284 31.516 66.9808C31.7553 68.1333 31.534 70.7516 30.5484 71.3951C30.9428 71.6642 31.2573 72.0491 31.4423 72.4893C31.5472 72.7386 31.6152 73.0115 31.7892 73.2186C32.1216 73.6142 32.7353 73.6383 33.2245 73.4719C33.831 73.2657 34.3496 72.8127 34.6356 72.2394C34.9215 71.6661 34.9713 70.9794 34.7712 70.3708Z" fill="#2F2E41"/>
<path d="M279.66 43.5032H274.034V34.527L279.66 36.3222V43.5032Z" fill="#2F2E41"/>
<path d="M280.658 89.0783L279.497 89.1057L278.85 83.8905L280.563 83.85L280.658 89.0783Z" fill="#A0616A"/>
<path d="M276.676 91.5C276.676 91.6961 276.815 91.8551 276.986 91.8551H279.291C279.291 91.8551 279.517 90.9436 280.442 90.5514L280.506 91.8551H281.694L281.55 89.7588C281.55 89.7588 281.868 88.6372 281.208 88.0639C280.547 87.4906 281.082 87.5704 281.082 87.5704L280.823 86.2729L279.026 86.4842L279.013 88.5209L278.142 90.5425L276.863 91.1741C276.749 91.2303 276.676 91.3584 276.676 91.5Z" fill="#2F2E41"/>
<path d="M274.709 89.0783L273.548 89.1057L272.901 83.8905L274.614 83.85L274.709 89.0783Z" fill="#A0616A"/>
<path d="M270.726 91.5C270.726 91.6961 270.865 91.8551 271.037 91.8551H273.341C273.341 91.8551 273.568 90.9436 274.493 90.5514L274.556 91.8551H275.745L275.601 89.7588C275.601 89.7588 275.919 88.6372 275.259 88.0639C274.598 87.4906 275.133 87.5704 275.133 87.5704L274.873 86.2729L273.077 86.4842L273.064 88.5209L272.192 90.5425L270.914 91.1741C270.8 91.2303 270.726 91.3584 270.726 91.5Z" fill="#2F2E41"/>
<path d="M280.018 53.317L272.598 57.7453L270.922 64.5673L271.76 85.6316H275.435L276.248 65.3452L277.877 85.6316H281.609L282.553 62.8507C282.813 61.1952 282.608 59.5 281.96 57.9542L280.018 53.317Z" fill="#2F2E41"/>
<path d="M278.343 39.793L275.232 39.5536L274.394 41.2292L272 41.8276L271.402 49.2479C272.586 52.3236 273.329 55.2628 272.599 57.7455L281.695 57.2667L280.176 53.1603C280.176 53.1603 280.139 51.6416 280.977 49.607C281.814 47.5724 280.498 42.3063 280.498 42.3063L278.583 41.8276L278.343 39.793Z" fill="#6C63FF"/>
<path d="M257.391 42.6795C257.694 42.6889 257.974 42.6291 258.194 42.5219L261.075 42.7936L261.164 41.4191L258.233 41.2914C258.019 41.1708 257.744 41.0937 257.441 41.0843C256.748 41.0629 256.176 41.4026 256.163 41.8431C256.149 42.2836 256.699 42.658 257.391 42.6795Z" fill="#A0616A"/>
<path d="M274.432 46.8759C274.432 46.8759 274.33 42.4969 273.37 41.8396C272.974 41.5686 266.884 41.507 266.662 41.484C265.293 41.3422 264.32 40.7989 263.168 40.7394C260.36 40.5943 258.941 41.2756 258.941 41.2756L258.891 42.6815L274.432 46.8759Z" fill="#6C63FF"/>
<path d="M276.522 39.4403C277.895 39.4403 279.007 38.3278 279.007 36.9555C279.007 35.5833 277.895 34.4708 276.522 34.4708C275.15 34.4708 274.038 35.5833 274.038 36.9555C274.038 38.3278 275.15 39.4403 276.522 39.4403Z" fill="#A0616A"/>
<path d="M275.768 33.2556C275.234 33.5925 274.842 33.3513 274.461 33.5212C273.715 33.8532 272.456 36.1848 272.569 37.161C272.73 38.5435 273.238 38.6004 273.223 39.5923C273.199 41.185 273.072 41.1784 273.398 41.7345C273.761 42.3531 275.816 42.1851 276.197 41.3463C276.273 41.1809 275.437 41.2459 274.513 39.0749C274.049 37.9855 274.354 36.9928 274.513 36.5616C274.55 36.4606 274.567 35.7439 274.647 35.8234C275.344 36.5209 275.735 36.011 276.156 35.9525C277.021 35.8324 277.672 36.5298 277.934 36.2794C278.129 36.0931 277.88 35.6006 277.975 35.5643C278.076 35.5257 278.41 36.066 278.629 36.6472C278.77 37.022 278.84 37.2093 278.833 37.4236C278.81 38.0851 278.642 39.9608 278.343 40.5111C277.697 41.6996 278.51 42.1481 279.017 42.0614C279.426 41.9914 281.236 42.267 281.335 42.067C281.423 41.8889 281.222 40.0561 281.01 38.3522C280.755 36.3042 279.735 34.4222 278.135 33.1185C278.041 33.0421 277.971 32.9896 277.934 32.9696C277.845 32.9221 276.932 32.4477 276.259 32.8266C276.011 32.966 276.051 33.0773 275.768 33.2556Z" fill="#2F2E41"/>
<path d="M244.73 91.018L243.352 91.0179L242.696 85.7003L244.731 85.7005L244.73 91.018Z" fill="#FFB6B6"/>
<path d="M240.007 90.9869C239.964 91.0592 239.941 91.2926 239.941 91.3766C239.941 91.635 240.151 91.8445 240.409 91.8445H244.678C244.855 91.8445 244.998 91.7016 244.998 91.5253V91.3476C244.998 91.3476 245.209 90.8134 244.774 90.1549C244.774 90.1549 244.234 90.6705 243.426 89.8629L243.188 89.4315L241.464 90.6922L240.509 90.8098C240.3 90.8356 240.114 90.8058 240.007 90.9869Z" fill="#2F2E41"/>
<path d="M250.542 91.018L249.164 91.0179L248.508 85.7003L250.543 85.7005L250.542 91.018Z" fill="#FFB6B6"/>
<path d="M245.819 90.9869C245.776 91.0592 245.753 91.2926 245.753 91.3766C245.753 91.635 245.963 91.8445 246.221 91.8445H250.49C250.667 91.8445 250.81 91.7016 250.81 91.5253V91.3476C250.81 91.3476 251.021 90.8134 250.586 90.1549C250.586 90.1549 250.046 90.6705 249.238 89.8629L249 89.4315L247.276 90.6922L246.321 90.8098C246.112 90.8356 245.926 90.8058 245.819 90.9869Z" fill="#2F2E41"/>
<path d="M250.816 57.4456L240.702 57.3293L239.656 63.9555L242.214 86.8565H245.567L246.341 65.5249L247.736 87.2634H251.169L252.734 62.5024L250.816 57.4456Z" fill="#2F2E41"/>
<path d="M293.693 90.1048C293.933 90.1198 294.065 89.8215 293.884 89.6476L293.866 89.5757C293.868 89.5699 293.87 89.5642 293.873 89.5584C294.116 88.9793 294.939 88.9833 295.18 89.5633C295.393 90.0781 295.665 90.5937 295.732 91.138C295.762 91.3783 295.749 91.623 295.696 91.8588C296.196 90.7648 296.46 89.5702 296.46 88.3689C296.46 88.0671 296.444 87.7652 296.41 87.4642C296.382 87.2179 296.344 86.9731 296.294 86.7306C296.026 85.4196 295.446 84.171 294.608 83.1281C294.206 82.9081 293.87 82.5642 293.668 82.152C293.595 82.0033 293.538 81.8434 293.511 81.6805C293.557 81.6865 293.683 80.9889 293.649 80.9461C293.713 80.8493 293.827 80.8011 293.897 80.7066C294.243 80.2366 294.721 80.3187 294.97 80.9574C295.503 81.2263 295.508 81.6721 295.181 82.1009C294.973 82.3738 294.945 82.7429 294.762 83.035C294.781 83.059 294.801 83.0823 294.819 83.1063C295.164 83.5478 295.461 84.0223 295.712 84.5209C295.641 83.9668 295.746 83.2993 295.925 82.869C296.128 82.3788 296.509 81.9659 296.844 81.5421C297.247 81.033 298.073 81.2551 298.144 81.9005C298.145 81.9067 298.146 81.913 298.146 81.9192C298.097 81.9473 298.048 81.9772 298 82.0087C297.728 82.1886 297.822 82.6102 298.144 82.6599L298.152 82.6611C298.134 82.8405 298.103 83.0185 298.058 83.1934C298.488 84.8576 297.559 85.4637 296.233 85.491C296.203 85.506 296.175 85.521 296.145 85.5353C296.28 85.9137 296.387 86.3019 296.467 86.6953C296.538 87.0429 296.588 87.3943 296.615 87.7472C296.65 88.1925 296.647 88.64 296.609 89.0845L296.612 89.0687C296.707 88.5792 296.973 88.1219 297.359 87.805C297.934 87.3328 298.746 87.1588 299.366 86.7792C299.665 86.5965 300.047 86.8326 299.995 87.1788L299.993 87.1954C299.9 87.2329 299.81 87.2764 299.723 87.3253C299.673 87.3534 299.625 87.3832 299.577 87.4148C299.305 87.5946 299.399 88.0162 299.721 88.066L299.728 88.0671C299.734 88.0678 299.738 88.0686 299.743 88.0693C299.585 88.4455 299.364 88.7946 299.088 89.0957C298.819 90.5485 297.663 90.6863 296.427 90.2633H296.426C296.291 90.8519 296.094 91.4271 295.84 91.9752H293.745C293.737 91.9519 293.731 91.9279 293.724 91.9046C293.918 91.9166 294.113 91.9054 294.304 91.8701C294.148 91.6794 293.993 91.4871 293.837 91.2964C293.834 91.2927 293.831 91.2889 293.828 91.2852C293.749 91.1876 293.669 91.0907 293.59 90.9931L293.59 90.993C293.585 90.6933 293.621 90.3946 293.693 90.1048Z" fill="#F2F2F2"/>
<path d="M247.387 40.0664H243.787L243.086 41.4614L239.656 43.0362L240.877 52.04L239.947 57.9687H251.564L250.526 51.11L251.921 42.8564L248.084 41.3451L247.387 40.0664Z" fill="#E6E6E6"/>
<path d="M259.435 61.8842C259.278 61.5639 259.207 61.2347 259.215 60.9466L257.527 57.9899L258.957 57.2277L260.516 60.3091C260.748 60.4791 260.965 60.7374 261.122 61.0577C261.48 61.7894 261.394 62.5676 260.928 62.7958C260.462 63.024 259.794 62.6159 259.435 61.8842Z" fill="#FFB6B6"/>
<path d="M248.307 42.4596C248.307 42.4596 249.446 41.2878 250.724 42.1033C252.002 42.9187 256.662 51.2635 256.662 51.2635L260.258 58.4375L257.72 59.6198L254.658 52.7501L248.229 45.8308L248.307 42.4596Z" fill="#E6E6E6"/>
<path d="M245.434 39.3865C247.23 39.3865 248.685 37.9313 248.685 36.1361C248.685 34.341 247.23 32.8857 245.434 32.8857C243.639 32.8857 242.184 34.341 242.184 36.1361C242.184 37.9313 243.639 39.3865 245.434 39.3865Z" fill="#FFB6B6"/>
<path d="M244.414 38.7519C244.429 39.0704 244.437 39.2296 244.388 39.2488C244.241 39.3068 242.344 38.1868 242.121 37.4413C242.017 37.0936 242.105 37.0867 242.029 36.0974C241.956 35.1513 241.875 35.1438 241.971 34.9097C242.078 34.6495 242.405 34.329 243.059 33.6879C243.307 33.4455 243.43 33.3243 243.509 33.2617C243.745 33.0717 244.627 32.3642 245.435 32.4556C245.774 32.4939 245.716 32.6292 246.982 33.3156C247.091 33.3747 247.237 33.4528 247.439 33.5424C247.93 33.7603 248.234 33.8168 248.395 33.8776C249.367 34.2459 249.082 36.2977 248.998 36.3095C248.968 36.3137 248.959 36.0477 248.8 36.0257C248.656 36.0059 248.565 36.2079 248.434 36.2153C248.078 36.2354 248.474 35.8942 247.602 35.5154C247.263 35.3681 248.206 36.0322 247.308 36.0214C245.904 36.0045 246.802 36.0939 246.268 36.3741C245.879 36.5784 244.315 35.454 244.378 35.8133C244.423 36.0667 244.607 36.1397 244.58 36.4236C244.555 36.6986 244.348 36.9951 244.166 37.006C243.998 37.016 243.906 36.7802 243.85 36.8027C243.789 36.8273 243.856 37.1232 243.987 37.4273C244.154 37.8133 244.254 37.8163 244.342 38.1131C244.392 38.2839 244.4 38.4399 244.414 38.7519Z" fill="#2F2E41"/>
<path d="M270.033 60.9299L249.09 55.6014C247.751 55.2608 246.939 53.8945 247.279 52.5557L249.885 42.3152C250.225 40.9765 251.592 40.1644 252.93 40.505L273.874 45.8335C275.212 46.1741 276.024 47.5404 275.684 48.8792L273.078 59.1197C272.738 60.4584 271.371 61.2705 270.033 60.9299Z" fill="white"/>
<path d="M270.033 60.9299L249.09 55.6015C248.42 55.4311 247.883 55.0044 247.498 54.4386C246.94 53.6153 246.794 52.5789 247.039 51.6146L249.224 43.0272C249.469 42.0629 250.093 41.2221 250.977 40.7661C251.585 40.4526 252.261 40.3348 252.931 40.5051L273.874 45.8336C275.215 46.1747 276.025 47.5383 275.684 48.8793L273.078 59.1197C272.738 60.4585 271.372 61.2706 270.033 60.9299ZM252.873 40.7304C251.657 40.4209 251.975 41.5226 251.665 42.7391C250.155 48.6741 253.278 54.8101 258.967 57.0793C262.037 58.3043 264.591 59.3055 264.591 59.3055C268.845 60.3877 273.17 57.8169 274.252 53.5634L275.459 48.8219C275.768 47.6054 275.033 46.3684 273.816 46.0589L252.873 40.7304Z" fill="#3F3D56"/>
<path d="M262.672 48.8C262.526 47.6003 261.435 46.746 260.236 46.892C259.047 47.0365 258.199 48.1082 258.324 49.2945L258.29 49.2987L258.818 53.6433L262.816 53.157C262.942 53.1639 263.071 53.1605 263.201 53.1446C264.4 52.9987 265.255 51.9078 265.109 50.7081C264.963 49.5084 263.872 48.6541 262.672 48.8Z" fill="#FB9EFD"/>
<path d="M255.009 89.8422C254.84 89.4059 254.349 89.1895 253.913 89.3588C253.481 89.5265 253.265 90.0097 253.425 90.4429L253.412 90.4478L254.026 92.0278L255.479 91.4636C255.527 91.4541 255.575 91.4405 255.623 91.4222C256.059 91.2529 256.275 90.7619 256.106 90.3256C255.937 89.8893 255.446 89.6729 255.009 89.8422Z" fill="#E6E6E6"/>
<path d="M287.559 89.8422C287.389 89.4059 286.899 89.1895 286.462 89.3588C286.03 89.5265 285.814 90.0097 285.974 90.4429L285.962 90.4478L286.575 92.0278L288.029 91.4636C288.077 91.4541 288.125 91.4405 288.172 91.4222C288.608 91.2529 288.825 90.7619 288.655 90.3256C288.486 89.8893 287.995 89.6729 287.559 89.8422Z" fill="#E6E6E6"/>
<path d="M260.955 61.3221C262.496 61.3221 263.745 60.073 263.745 58.5322C263.745 56.9913 262.496 55.7422 260.955 55.7422C259.414 55.7422 258.165 56.9913 258.165 58.5322C258.165 60.073 259.414 61.3221 260.955 61.3221Z" fill="#6C63FF"/>
<path d="M248.273 47.2174C247.973 47.4113 247.655 47.5216 247.368 47.5477L244.633 49.5755L243.706 48.2458L246.58 46.332C246.722 46.0808 246.952 45.8353 247.252 45.6413C247.936 45.1983 248.719 45.1919 249 45.6271C249.282 46.0623 248.957 46.7743 248.273 47.2174Z" fill="#FFB6B6"/>
<path d="M241.867 42.4856C241.867 42.4856 239.774 42.2531 239.425 43.0668C239.077 43.8806 238.379 52.018 238.379 52.018L239.542 53.9942L247.165 48.2245L245.621 46.6807L242.354 48.2245L241.867 42.4856Z" fill="#E6E6E6"/>
<path d="M272.174 45.1149C272.423 45.3706 272.708 45.549 272.982 45.6384L275.197 48.2244L276.397 47.1345L274.021 44.6286C273.939 44.3523 273.769 44.0616 273.52 43.8058C272.952 43.2216 272.19 43.041 271.819 43.4025C271.447 43.764 271.606 44.5306 272.174 45.1149Z" fill="#A0616A"/>
<path d="M279.473 41.9285C279.473 41.9285 281.565 42.1678 281.724 43.0388C281.882 43.9098 280.75 51.9981 280.75 51.9981L279.177 53.6659L273.03 46.3433L274.878 45.1821L277.72 47.4147L279.473 41.9285Z" fill="#6C63FF"/>
<path d="M251.27 51.3197C252.233 51.3197 253.014 50.5387 253.014 49.5754C253.014 48.6121 252.233 47.8312 251.27 47.8312C250.307 47.8312 249.526 48.6121 249.526 49.5754C249.526 50.5387 250.307 51.3197 251.27 51.3197Z" fill="#E6E6E6"/>
<path d="M51.4711 78.1541C52.1019 78.1541 52.6133 77.6427 52.6133 77.0119C52.6133 76.381 52.1019 75.8696 51.4711 75.8696C50.8402 75.8696 50.3289 76.381 50.3289 77.0119C50.3289 77.6427 50.8402 78.1541 51.4711 78.1541Z" fill="#3F3D56"/>
<path d="M60.1017 88.0534C60.7325 88.0534 61.2439 87.542 61.2439 86.9111C61.2439 86.2803 60.7325 85.7689 60.1017 85.7689C59.4709 85.7689 58.9595 86.2803 58.9595 86.9111C58.9595 87.542 59.4709 88.0534 60.1017 88.0534Z" fill="#3F3D56"/>
<path d="M48.362 72.3794L58.2613 85.1977C58.2613 85.1977 60.2919 89.0051 63.4647 87.8629C66.6376 86.7207 61.8149 83.294 61.8149 83.294L52.1694 70.4757C52.1694 70.4757 50.9003 67.0311 48.362 67.7381C45.8237 68.4451 48.362 72.3794 48.362 72.3794Z" fill="#FB9EFD"/>
<path d="M65.0956 81.3854L63.4231 82.2706L59.2126 76.2409L61.6811 74.9344L65.0956 81.3854Z" fill="#A0616A"/>
<path d="M59.3456 84.3808C59.34 84.496 59.4624 84.7936 59.5164 84.8956C59.6823 85.2091 60.071 85.3287 60.3845 85.1628L65.5637 82.421C65.7776 82.3078 65.8592 82.0427 65.746 81.8288L65.6318 81.6132C65.6318 81.6132 65.545 80.8295 64.5946 80.3099C64.5946 80.3099 64.2701 81.2825 62.7719 80.8214L62.2059 80.451L60.9244 83.0873L59.8408 83.8436C59.6037 84.0091 59.3598 84.092 59.3456 84.3808Z" fill="#2F2E41"/>
<path d="M56.846 70.5978L55.1735 71.483L50.9631 65.4533L53.4315 64.1469L56.846 70.5978Z" fill="#A0616A"/>
<path d="M51.0964 73.5931C51.0907 73.7083 51.2131 74.0059 51.2671 74.1079C51.433 74.4214 51.8217 74.541 52.1352 74.3751L57.3144 71.6333C57.5283 71.5201 57.6099 71.255 57.4967 71.0411L57.3825 70.8255C57.3825 70.8255 57.2957 70.0418 56.3453 69.5222C56.3453 69.5222 56.0208 70.4947 54.5226 70.0337L53.9567 69.6633L52.6751 72.2996L51.5915 73.0559C51.3545 73.2213 51.1105 73.3043 51.0964 73.5931Z" fill="#2F2E41"/>
<path d="M80.5224 81.3536C80.4153 81.1729 79.9517 81.3664 79.8665 81.2024C79.7816 81.039 80.2123 80.7901 80.4583 80.2214C80.5027 80.1188 80.7823 79.4725 80.5753 79.2731C80.1829 78.8951 78.3874 80.455 77.759 79.9445C77.6211 79.8325 77.5248 79.6089 77.1074 79.2458C76.9414 79.1013 76.841 79.0361 76.7438 79.0604C76.6059 79.0948 76.595 79.2793 76.4472 79.6422C76.2254 80.1863 76.0943 80.1534 75.9651 80.5875C75.8692 80.9098 75.8911 81.0972 75.7783 81.1337C75.6186 81.1853 75.4716 80.8435 75.2692 80.8741C75.0627 80.9053 74.9379 81.3033 74.8984 81.6013C74.8244 82.1605 75.0298 82.5295 75.1436 82.9175C75.2673 83.3391 75.3407 83.9804 75.0551 84.8881L72.2278 92.854C72.852 91.2195 74.6592 86.7386 75.4187 85.0735C75.6379 84.5929 75.88 84.1053 76.377 83.9129C76.8555 83.7276 77.5127 83.8382 78.3505 83.6364C78.4484 83.6128 78.7199 83.5437 78.7541 83.384C78.7824 83.252 78.6226 83.1783 78.6472 83.0546C78.6801 82.8887 78.9942 82.8867 79.3801 82.6953C79.6523 82.5604 79.8219 82.3999 79.9677 82.2619C80.0116 82.2203 80.6651 81.5941 80.5224 81.3536Z" fill="#F2F2F2"/>
<path d="M69.3989 85.5472C69.2793 85.5477 69.2405 85.831 69.1354 85.8255C69.0307 85.8201 69.0328 85.5369 68.8247 85.252C68.7871 85.2006 68.5506 84.8769 68.393 84.921C68.0943 85.0045 68.3418 86.3358 67.91 86.497C67.8152 86.5323 67.6776 86.5151 67.379 86.6152C67.2602 86.655 67.1992 86.6854 67.1831 86.7401C67.1602 86.8177 67.2476 86.8763 67.383 87.0536C67.5861 87.3194 67.5321 87.3743 67.7079 87.5629C67.8384 87.703 67.9367 87.7463 67.9221 87.8122C67.9013 87.9055 67.6912 87.879 67.6478 87.9872C67.6035 88.0975 67.7629 88.2737 67.8977 88.379C68.1508 88.5767 68.3912 88.5823 68.6145 88.6384C68.8571 88.6994 69.193 88.8484 69.5561 89.2505L72.6501 92.9365C72.0279 92.1586 70.3502 89.9787 69.752 89.1255C69.5794 88.8792 69.4099 88.6197 69.4589 88.3203C69.506 88.032 69.7499 87.7413 69.8926 87.2719C69.9093 87.217 69.9537 87.0638 69.8852 87.001C69.8285 86.949 69.7463 87.0061 69.6927 86.9584C69.6207 86.8944 69.7104 86.7396 69.7278 86.495C69.7401 86.3225 69.7102 86.193 69.6846 86.0816C69.6768 86.048 69.5581 85.5466 69.3989 85.5472Z" fill="#F2F2F2"/>
<path d="M71.7852 86.0827L71.7131 85.4395L71.7461 85.3907C71.8984 85.1652 71.976 84.945 71.977 84.736C71.9771 84.7028 71.9756 84.6695 71.974 84.6357C71.9678 84.5015 71.96 84.3347 72.047 84.1403C72.0958 84.0319 72.2327 83.7809 72.4387 83.812C72.4941 83.8198 72.536 83.8452 72.5679 83.875C72.5725 83.8676 72.5773 83.8601 72.5825 83.8521C72.6466 83.7542 72.6974 83.7123 72.7463 83.6719C72.7839 83.6409 72.8227 83.6089 72.8836 83.5331C72.9103 83.4999 72.9311 83.4707 72.9486 83.4461C73.0019 83.3719 73.0715 83.2834 73.1942 83.2849C73.3252 83.2911 73.3939 83.3995 73.4394 83.4713C73.5206 83.5992 73.5574 83.6915 73.5818 83.7527C73.5906 83.775 73.6007 83.8002 73.6058 83.808C73.6481 83.8701 73.9914 83.812 74.1208 83.7909C74.4113 83.7424 74.6627 83.7005 74.7663 83.8837C74.8406 84.0148 74.7854 84.1881 74.5975 84.4127C74.539 84.4825 74.4767 84.5357 74.4214 84.5773C74.4672 84.6046 74.5082 84.6465 74.5249 84.7124C74.564 84.8683 74.43 85.0245 74.1267 85.1773C74.0514 85.2155 73.95 85.2665 73.8079 85.291C73.7409 85.3025 73.6807 85.3053 73.6291 85.3068C73.628 85.3367 73.6211 85.369 73.6029 85.4022C73.5496 85.5 73.4387 85.5466 73.2716 85.5354C73.0878 85.5258 72.9364 85.4907 72.8028 85.46C72.6862 85.4332 72.5857 85.4106 72.5068 85.4159C72.3606 85.4277 72.2478 85.5447 72.1155 85.6966L71.7852 86.0827Z" fill="#F2F2F2"/>
<path d="M72.1193 82.253L71.5154 82.4858L71.4599 82.4664C71.2031 82.3762 70.9704 82.3569 70.768 82.4091C70.7358 82.4173 70.7041 82.4273 70.6717 82.4374C70.5435 82.4774 70.3841 82.5272 70.174 82.4924C70.0568 82.4727 69.7793 82.4039 69.7571 82.1968C69.7506 82.1413 69.7646 82.0942 69.7853 82.0559C69.7769 82.0533 69.7685 82.0505 69.7594 82.0476C69.6485 82.0104 69.5951 81.9719 69.5436 81.9348C69.504 81.9063 69.4632 81.8769 69.3745 81.8372C69.3356 81.8198 69.302 81.8071 69.2739 81.7963C69.1885 81.7637 69.0853 81.7188 69.0557 81.5997C69.0284 81.4714 69.1159 81.3775 69.1737 81.3153C69.2769 81.2043 69.3568 81.1453 69.4098 81.1062C69.4292 81.0919 69.451 81.0758 69.4572 81.0689C69.5065 81.0122 69.3633 80.6949 69.31 80.5751C69.1895 80.3063 69.0851 80.0738 69.2361 79.9271C69.3441 79.822 69.5257 79.8314 69.7906 79.9562C69.873 79.9951 69.9402 80.0419 69.9944 80.0848C70.0093 80.0336 70.0394 79.9833 70.0989 79.9505C70.2398 79.8731 70.4249 79.9631 70.6496 80.2177C70.7057 80.2809 70.7807 80.366 70.8405 80.4973C70.8686 80.5591 70.8865 80.6167 70.9011 80.6661C70.9302 80.6596 70.9633 80.6582 71 80.6673C71.1082 80.6941 71.1813 80.7895 71.2129 80.954C71.2502 81.1342 71.2547 81.2896 71.2588 81.4266C71.2626 81.5462 71.2661 81.6491 71.2912 81.7241C71.3398 81.8626 71.4816 81.9419 71.6621 82.0314L72.1193 82.253Z" fill="#F2F2F2"/>
<path d="M71.7852 80.3579L71.7131 79.7147L71.7461 79.666C71.8984 79.4405 71.976 79.2203 71.977 79.0113C71.9771 78.978 71.9756 78.9448 71.974 78.9109C71.9678 78.7768 71.96 78.61 72.047 78.4156C72.0958 78.3072 72.2327 78.0562 72.4387 78.0873C72.4941 78.095 72.536 78.1205 72.5679 78.1503C72.5725 78.1429 72.5773 78.1354 72.5825 78.1273C72.6466 78.0295 72.6974 77.9876 72.7463 77.9472C72.7839 77.9161 72.8227 77.8841 72.8836 77.8084C72.9103 77.7751 72.9311 77.7459 72.9486 77.7214C73.0019 77.6472 73.0715 77.5586 73.1942 77.5602C73.3252 77.5664 73.3939 77.6748 73.4394 77.7466C73.5206 77.8745 73.5574 77.9668 73.5818 78.0279C73.5906 78.0503 73.6007 78.0755 73.6058 78.0832C73.6481 78.1453 73.9914 78.0873 74.1208 78.0661C74.4113 78.0177 74.6627 77.9758 74.7663 78.159C74.8406 78.2901 74.7854 78.4634 74.5975 78.6879C74.539 78.7578 74.4767 78.8109 74.4214 78.8525C74.4672 78.8799 74.5082 78.9218 74.5249 78.9876C74.564 79.1436 74.43 79.2998 74.1267 79.4526C74.0514 79.4908 73.95 79.5417 73.8079 79.5663C73.7409 79.5778 73.6807 79.5806 73.6291 79.5821C73.628 79.6119 73.6211 79.6442 73.6029 79.6775C73.5496 79.7753 73.4387 79.8219 73.2716 79.8107C73.0878 79.8011 72.9364 79.766 72.8028 79.7352C72.6862 79.7085 72.5857 79.6858 72.5068 79.6911C72.3606 79.7029 72.2478 79.82 72.1155 79.9719L71.7852 80.3579Z" fill="#F2F2F2"/>
<path d="M72.4432 92.8435L72.3084 92.759L72.1512 92.777C72.1488 92.7624 72.1402 92.7288 72.1273 92.6764C72.057 92.3888 71.8425 91.5135 71.6636 90.1352C71.5388 89.173 71.4681 88.1838 71.4535 87.1945C71.4389 86.2038 71.4858 85.4537 71.5234 84.8509C71.5518 84.3962 71.5863 83.9632 71.6201 83.5415C71.7102 82.4147 71.7952 81.3503 71.732 80.1719C71.718 79.9089 71.6886 79.3613 71.3687 78.7786C71.1832 78.4407 70.9275 78.1407 70.6089 77.8873L70.807 77.6382C71.1588 77.9183 71.4416 78.2507 71.6476 78.6258C72.0023 79.2719 72.0343 79.8685 72.0497 80.1552C72.114 81.3543 72.0281 82.4289 71.9371 83.5666C71.9036 83.9868 71.8691 84.4179 71.8408 84.8708C71.8035 85.468 71.7571 86.2115 71.7716 87.1896C71.7858 88.167 71.8557 89.1441 71.9789 90.0942C72.1556 91.4551 72.3669 92.3173 72.4364 92.6006C72.4733 92.7518 72.4811 92.7835 72.4432 92.8435Z" fill="#F2F2F2"/>
<path d="M70.0256 78.3927C70.0125 78.3927 69.9993 78.3924 69.986 78.3914C69.7151 78.3768 69.4643 78.2147 69.2404 77.9097C69.1354 77.7662 69.0817 77.6025 68.9745 77.2761C68.9579 77.2258 68.8772 76.9705 68.8281 76.6192C68.796 76.3897 68.8 76.2937 68.8455 76.209C68.896 76.1145 68.9777 76.0487 69.0696 76.0043C69.0655 75.9738 69.0688 75.9425 69.082 75.9105C69.1362 75.7779 69.2803 75.7953 69.3583 75.8036C69.3977 75.8086 69.447 75.8151 69.5001 75.8123C69.5836 75.8083 69.6285 75.7835 69.6965 75.7462C69.7616 75.7105 69.8425 75.6661 69.9625 75.6415C70.1992 75.5921 70.3975 75.6592 70.4629 75.6813C70.8068 75.7959 70.9764 76.0633 71.1727 76.3729C71.2118 76.4351 71.3462 76.6612 71.4348 76.9711C71.4988 77.1947 71.4898 77.2941 71.4706 77.3681C71.4314 77.5199 71.339 77.6069 71.1044 77.7988C70.8593 77.9998 70.7363 78.1004 70.6307 78.1616C70.3849 78.3035 70.2306 78.3927 70.0256 78.3927Z" fill="#F2F2F2"/>
<path d="M62.8302 57.7846L56.6114 67.8108L63.084 76.9486L60.5457 78.2177C60.5457 78.2177 52.2964 69.4607 52.0425 68.3185C51.7887 67.1762 54.5808 59.1807 54.5808 59.1807H49.2799L54.327 65.5263L51.9156 67.0493L43.2855 58.673C43.2855 58.673 42.2702 56.9862 43.2855 56.3701C44.3008 55.754 53.4051 51.6927 53.4051 51.6927L62.8302 57.7846Z" fill="#2F2E41"/>
<path d="M48.5524 75.6159C49.1832 75.6159 49.6946 75.1045 49.6946 74.4736C49.6946 73.8428 49.1832 73.3314 48.5524 73.3314C47.9215 73.3314 47.4102 73.8428 47.4102 74.4736C47.4102 75.1045 47.9215 75.6159 48.5524 75.6159Z" fill="#3F3D56"/>
<path d="M57.119 86.5938C57.7499 86.5938 58.2613 86.0824 58.2613 85.4516C58.2613 84.8207 57.7499 84.3093 57.119 84.3093C56.4882 84.3093 55.9768 84.8207 55.9768 85.4516C55.9768 86.0824 56.4882 86.5938 57.119 86.5938Z" fill="#3F3D56"/>
<path d="M47.6641 42.7451L49.5678 39.1915C49.5678 39.1915 55.3988 40.3338 57.2426 42.7451C59.0863 45.1565 62.3861 51.5022 62.3861 51.5022C62.3861 51.5022 64.9243 56.5787 62.6399 59.3708C60.3554 62.1629 57.4364 56.5787 57.4364 56.5787L53.2483 51.8829L52.7406 51.756L47.6641 42.7451Z" fill="#FB9EFD"/>
<path d="M44.7676 57.6687C44.9299 57.2748 45.1842 56.9256 45.5091 56.6502L48.2582 49.2927L50.3854 50.1121L47.2502 57.3957C47.2752 57.8208 47.1979 58.2457 47.0249 58.6348C46.6054 59.6147 45.7601 60.1923 45.1367 59.9254C44.5134 59.6586 44.348 58.6481 44.7676 57.6687Z" fill="#A0616A"/>
<path d="M49.1236 42.9355L54.1367 44.522L50.012 51.6926L46.8391 51.4388L49.1236 42.9355Z" fill="#FB9EFD"/>
<path d="M37.4097 48.8447C37.8095 48.6975 38.2386 48.6483 38.6613 48.701L45.9377 45.7439L46.7746 47.8642L39.2913 50.4872C38.9952 50.7933 38.6302 51.0241 38.2267 51.1602C37.2215 51.5147 36.2241 51.2836 35.9986 50.6441C35.773 50.0046 36.4048 49.1989 37.4097 48.8447Z" fill="#A0616A"/>
<path d="M49.4409 41.349L53.1261 45.4811L45.3585 48.6593L43.3975 46.1521L49.4409 41.349Z" fill="#FB9EFD"/>
<path d="M47.9177 35.5287C48.7684 35.5287 49.4581 34.839 49.4581 33.9882C49.4581 33.1374 48.7684 32.4478 47.9177 32.4478C47.0669 32.4478 46.3772 33.1374 46.3772 33.9882C46.3772 34.839 47.0669 35.5287 47.9177 35.5287Z" fill="#2F2E41"/>
<path d="M45.5518 40.8937C47.4045 40.8937 48.9065 39.3917 48.9065 37.5389C48.9065 35.6862 47.4045 34.1842 45.5518 34.1842C43.699 34.1842 42.197 35.6862 42.197 37.5389C42.197 39.3917 43.699 40.8937 45.5518 40.8937Z" fill="#A0616A"/>
<path d="M47.9578 40.517C48.3597 40.553 49.0158 39.5248 48.9866 38.5292C48.9677 37.8886 49.5239 37.7627 49.5652 36.9366C49.5893 36.4553 48.8499 36.3052 48.7991 35.9192C48.7071 35.2197 48.2558 34.749 48.1995 34.6917C47.7131 34.1978 47.3698 34.3584 46.7979 33.7859C46.4536 33.4413 46.5418 33.3468 46.3099 33.194C45.6406 32.7528 44.438 33.2309 43.7188 33.8751C43.47 34.0979 42.5423 33.8543 42.1371 34.4838C41.6597 35.2253 41.7706 36.7377 41.9753 36.9373C42.0997 37.0585 42.3837 36.7623 43.1536 36.5721C43.8663 36.3961 43.1939 37.2666 44.0179 37.1205C44.9923 36.9478 45.1831 36.6514 45.548 36.8292C45.9337 37.0171 46.2352 37.5991 46.1476 38.0566C46.1042 38.2836 45.9784 38.4102 46.0493 38.5256C46.1789 38.7364 46.3276 38.5297 46.4938 38.7412C46.6871 38.9872 46.2067 39.6184 46.2972 39.6793C46.3154 39.6916 46.3706 39.69 46.8891 39.1913C47.0962 38.9922 47.1569 38.8699 47.1974 38.8887C47.263 38.9191 47.6928 39.3195 47.5287 39.6357C47.2733 40.1278 47.6001 40.1431 47.5287 40.4744C47.4549 40.8161 47.7024 40.4942 47.9578 40.517Z" fill="#2F2E41"/>
<g clip-path="url(#clip0_222_326)">
<path d="M164.304 89.1737C164.202 89.1784 164.101 89.1517 164.015 89.0972C163.929 89.0427 163.862 88.963 163.823 88.869C163.783 88.775 163.774 88.6712 163.796 88.5717C163.817 88.4721 163.869 88.3816 163.944 88.3124C163.956 88.2626 163.965 88.2269 163.978 88.1771C163.88 87.9296 163.711 87.7169 163.492 87.5662C163.273 87.4155 163.014 87.3336 162.748 87.3311C162.482 87.3286 162.222 87.4056 162 87.5521C161.778 87.6987 161.605 87.9082 161.503 88.1537C160.914 89.5322 160.152 90.9593 160.531 92.4776C158.027 87.1711 158.878 80.5703 162.579 76.0322C163.601 75.4688 164.43 74.4678 164.646 73.3054C164.14 73.4769 163.509 73.0652 163.89 72.532C164.055 72.3282 164.221 72.126 164.386 71.9222C162.463 69.8744 160.172 73.0929 162.289 75.8568C161.596 76.7249 160.997 77.6629 160.499 78.6557C160.614 77.6015 160.477 76.5351 160.099 75.5443C159.717 74.6208 158.999 73.8431 158.367 73.0447C157.599 72.072 156.018 72.5208 155.914 73.7552C156.623 73.9882 156.716 75.0123 155.905 75.1525C156.117 77.4489 157.617 79.5593 159.684 80.5664C158.92 82.7074 158.623 84.9865 158.81 87.2518C158.445 84.6044 155.603 83.9619 153.617 82.9097C153.49 82.8286 153.343 82.7861 153.193 82.7873C153.043 82.7885 152.896 82.8334 152.771 82.9165C152.646 82.9996 152.548 83.1173 152.488 83.2552C152.429 83.3932 152.411 83.5454 152.437 83.6934C152.711 83.8049 152.973 83.9433 153.22 84.1067C153.336 84.1844 153.424 84.296 153.474 84.4262C153.524 84.5564 153.532 84.6987 153.498 84.8338C153.463 84.9688 153.388 85.0899 153.282 85.1805C153.176 85.271 153.045 85.3266 152.906 85.3397C153.907 87.8176 156.496 89.4816 159.155 89.4722C159.41 90.5824 159.78 91.6631 160.259 92.6968H164.205C164.219 92.653 164.232 92.6077 164.245 92.5639C163.879 92.5868 163.513 92.565 163.153 92.4988C164.119 91.3547 164.866 90.771 164.304 89.1738L164.304 89.1737Z" fill="#F2F2F2"/>
<path d="M199.482 89.1737C199.584 89.1784 199.685 89.1517 199.771 89.0972C199.857 89.0427 199.924 88.963 199.964 88.869C200.003 88.775 200.012 88.6712 199.991 88.5717C199.969 88.4721 199.917 88.3816 199.842 88.3124C199.83 88.2626 199.821 88.2269 199.808 88.1771C199.906 87.9296 200.075 87.7169 200.294 87.5662C200.513 87.4155 200.772 87.3336 201.038 87.3311C201.304 87.3286 201.565 87.4056 201.786 87.5521C202.008 87.6987 202.181 87.9082 202.283 88.1537C202.872 89.5322 203.635 90.9593 203.255 92.4776C205.759 87.1711 204.908 80.5703 201.208 76.0322C200.185 75.4688 199.356 74.4678 199.14 73.3054C199.646 73.4769 200.277 73.0652 199.897 72.532C199.732 72.3282 199.565 72.126 199.4 71.9222C201.323 69.8744 203.614 73.0929 201.498 75.8568C202.19 76.7249 202.79 77.6629 203.287 78.6557C203.172 77.6015 203.309 76.5351 203.687 75.5443C204.07 74.6208 204.787 73.8431 205.419 73.0447C206.187 72.072 207.768 72.5208 207.872 73.7552C207.163 73.9882 207.071 75.0123 207.882 75.1525C207.669 77.4489 206.169 79.5593 204.103 80.5664C204.866 82.7074 205.164 84.9865 204.977 87.2518C205.341 84.6044 208.183 83.9619 210.169 82.9097C210.296 82.8286 210.443 82.7861 210.593 82.7873C210.744 82.7885 210.89 82.8334 211.015 82.9165C211.14 82.9996 211.239 83.1173 211.298 83.2552C211.357 83.3932 211.375 83.5454 211.349 83.6934C211.075 83.8049 210.813 83.9433 210.566 84.1067C210.451 84.1844 210.362 84.296 210.312 84.4262C210.262 84.5564 210.254 84.6987 210.288 84.8338C210.323 84.9688 210.398 85.0899 210.504 85.1805C210.61 85.271 210.741 85.3266 210.88 85.3397C209.879 87.8176 207.29 89.4816 204.632 89.4722C204.376 90.5824 204.006 91.6631 203.527 92.6968H199.581C199.567 92.653 199.554 92.6077 199.542 92.5639C199.907 92.5868 200.273 92.565 200.633 92.4988C199.667 91.3547 198.92 90.7709 199.482 89.1737Z" fill="#F2F2F2"/>
<path d="M200.945 89.7595L199.246 90.1459L196.946 83.7754L199.454 83.2048L200.945 89.7595Z" fill="#FFB6B6"/>
<path d="M201.409 91.5185L196.183 92.7075L196.168 92.6414C196.045 92.102 196.142 91.5359 196.436 91.0677C196.731 90.5994 197.2 90.2674 197.739 90.1446L198.529 89.2032L200.475 89.5222L200.931 89.4184L201.409 91.5185Z" fill="#2F2E41"/>
<path d="M228.358 58.7074L229.292 60.1785L224.062 64.4823L222.683 62.3109L228.358 58.7074Z" fill="#FFB6B6"/>
<path d="M229.86 57.6808L232.733 62.2048L232.675 62.2411C232.208 62.5377 231.643 62.6366 231.103 62.5161C230.563 62.3956 230.093 62.0656 229.796 61.5986L228.644 61.1703L228.292 59.2303L228.042 58.8354L229.86 57.6808Z" fill="#2F2E41"/>
<path d="M174.19 42.9787L173.771 40.546L180.151 37.6646L181.529 35.2249C181.485 35.0108 181.5 34.7886 181.574 34.5828C181.648 34.3769 181.777 34.1956 181.948 34.0586C182.118 33.9217 182.323 33.8345 182.54 33.8068C182.757 33.7791 182.978 33.8119 183.177 33.9015C183.377 33.9911 183.547 34.1341 183.671 34.3148C183.794 34.4954 183.865 34.7065 183.876 34.9249C183.886 35.1433 183.837 35.3605 183.732 35.5524C183.627 35.7442 183.471 35.9034 183.281 36.0123L181.015 39.5169L174.19 42.9787Z" fill="#A0616A"/>
<path d="M172.25 40.99L175.124 39.5222L175.884 42.3784L173.888 43.8579L172.25 40.99Z" fill="#FB9EFD"/>
<path d="M165.802 89.5383L167.54 89.5382L168.366 82.8367L165.802 82.8368L165.802 89.5383Z" fill="#A0616A"/>
<path d="M168.118 89.6946V88.5167L167.661 88.5446L165.802 88.6548L165.372 88.6812L165.043 92.626L165.025 92.8375H166.259L166.298 92.6275L166.477 91.6729L166.94 92.6275L167.041 92.8375H170.312C170.507 92.8363 170.693 92.7583 170.83 92.6206C170.968 92.4828 171.046 92.2963 171.046 92.1017C171.184 91.457 168.464 90.0632 168.118 89.6946Z" fill="#2F2E41"/>
<path d="M145.179 62.9426L144.774 64.6323L151.098 66.9986L151.696 64.5049L145.179 62.9426Z" fill="#A0616A"/>
<path d="M144.624 65.158L145.769 65.4327L145.849 64.982L146.175 63.1482L146.25 62.7236L142.49 61.4839L142.289 61.4175L142.001 62.6171L142.196 62.7047L143.083 63.1015L142.046 63.3288L141.819 63.3784L141.056 66.5589C141.012 66.7485 141.044 66.9478 141.146 67.1136C141.248 67.2794 141.411 67.3984 141.6 67.4446C142.195 67.7291 144.185 65.4091 144.624 65.158Z" fill="#2F2E41"/>
<path d="M168.489 46.1664L166.252 45.121L161.793 50.518L159.076 51.2051C158.881 51.1058 158.663 51.0622 158.445 51.0793C158.227 51.0964 158.018 51.1734 157.841 51.3018C157.664 51.4302 157.526 51.6051 157.442 51.807C157.358 52.0089 157.332 52.2301 157.366 52.4462C157.4 52.6622 157.493 52.8646 157.634 53.0311C157.776 53.1975 157.961 53.3216 158.169 53.3895C158.377 53.4574 158.6 53.4666 158.812 53.4159C159.025 53.3653 159.22 53.2568 159.375 53.1025L163.352 51.8384L168.489 46.1664Z" fill="#A0616A"/>
<path d="M200.194 26.1871C199.72 26.1871 199.257 26.0465 198.863 25.7832C198.468 25.5198 198.161 25.1455 197.98 24.7075C197.798 24.2696 197.751 23.7877 197.843 23.3227C197.936 22.8578 198.164 22.4307 198.499 22.0956C198.835 21.7604 199.262 21.5321 199.727 21.4396C200.191 21.3471 200.673 21.3946 201.111 21.576C201.549 21.7574 201.924 22.0646 202.187 22.4588C202.45 22.8529 202.591 23.3163 202.591 23.7903C202.59 24.4258 202.337 25.035 201.888 25.4843C201.439 25.9337 200.83 26.1864 200.194 26.1871ZM200.194 21.6686C199.775 21.6686 199.364 21.793 199.015 22.0262C198.666 22.2593 198.395 22.5907 198.234 22.9784C198.073 23.3661 198.031 23.7927 198.113 24.2043C198.195 24.6158 198.397 24.9939 198.694 25.2906C198.991 25.5874 199.369 25.7894 199.78 25.8713C200.192 25.9532 200.618 25.9111 201.006 25.7506C201.394 25.59 201.725 25.318 201.958 24.9691C202.191 24.6202 202.316 24.21 202.316 23.7903C202.315 23.2278 202.091 22.6885 201.694 22.2908C201.296 21.893 200.757 21.6693 200.194 21.6686Z" fill="#E6E6E6"/>
<path d="M200.025 24.6932C200.02 24.6932 200.015 24.6931 200.01 24.6928C199.968 24.6908 199.926 24.6795 199.888 24.6599C199.851 24.6403 199.818 24.6127 199.791 24.579L199.414 24.0936C199.39 24.063 199.372 24.028 199.362 23.9905C199.352 23.9531 199.349 23.914 199.354 23.8755C199.359 23.837 199.371 23.7998 199.39 23.766C199.409 23.7323 199.435 23.7026 199.466 23.6788L199.479 23.6682C199.51 23.6444 199.545 23.6268 199.582 23.6165C199.62 23.6062 199.659 23.6033 199.697 23.6082C199.736 23.613 199.773 23.6253 199.807 23.6445C199.841 23.6637 199.87 23.6894 199.894 23.7201C199.913 23.7446 199.937 23.7646 199.965 23.7789C199.992 23.7932 200.023 23.8014 200.054 23.8029C200.085 23.8044 200.116 23.7992 200.145 23.7877C200.173 23.7761 200.199 23.7585 200.221 23.736L200.987 22.9267C201.041 22.8698 201.116 22.8367 201.194 22.8346C201.272 22.8325 201.348 22.8615 201.405 22.9153L201.418 22.9273C201.446 22.954 201.469 22.986 201.484 23.0214C201.5 23.0569 201.509 23.0951 201.51 23.1339C201.511 23.1727 201.504 23.2113 201.491 23.2476C201.477 23.2838 201.456 23.317 201.429 23.3452L200.239 24.6009C200.212 24.6301 200.179 24.6533 200.142 24.6692C200.105 24.685 200.065 24.6932 200.025 24.6932Z" fill="#E6E6E6"/>
<path d="M188.229 55.2052C187.755 55.2052 187.292 55.0646 186.897 54.8013C186.503 54.5379 186.196 54.1636 186.015 53.7256C185.833 53.2877 185.786 52.8057 185.878 52.3408C185.971 51.8759 186.199 51.4488 186.534 51.1136C186.869 50.7784 187.297 50.5502 187.761 50.4577C188.226 50.3652 188.708 50.4127 189.146 50.5941C189.584 50.7755 189.959 51.0827 190.222 51.4768C190.485 51.871 190.626 52.3344 190.626 52.8084C190.625 53.4438 190.372 54.0531 189.923 54.5024C189.474 54.9517 188.864 55.2045 188.229 55.2052ZM188.229 50.6867C187.809 50.6867 187.399 50.8111 187.05 51.0443C186.701 51.2774 186.429 51.6088 186.269 51.9965C186.108 52.3841 186.066 52.8108 186.148 53.2223C186.23 53.6339 186.432 54.012 186.729 54.3087C187.025 54.6054 187.404 54.8075 187.815 54.8894C188.227 54.9712 188.653 54.9292 189.041 54.7686C189.429 54.608 189.76 54.3361 189.993 53.9872C190.226 53.6383 190.351 53.228 190.351 52.8084C190.35 52.2459 190.126 51.7066 189.729 51.3088C189.331 50.9111 188.792 50.6873 188.229 50.6867Z" fill="#E6E6E6"/>
<path d="M188.06 53.7113C188.055 53.7113 188.051 53.7111 188.046 53.7109C188.003 53.7088 187.962 53.6976 187.924 53.678C187.886 53.6583 187.853 53.6307 187.827 53.5971L187.449 53.1117C187.425 53.0811 187.408 53.046 187.398 53.0086C187.387 52.9712 187.384 52.9321 187.389 52.8936C187.394 52.855 187.406 52.8178 187.426 52.7841C187.445 52.7503 187.47 52.7207 187.501 52.6969L187.515 52.6863C187.545 52.6624 187.58 52.6449 187.618 52.6345C187.655 52.6242 187.694 52.6214 187.733 52.6262C187.771 52.631 187.809 52.6434 187.842 52.6626C187.876 52.6818 187.906 52.7075 187.93 52.7381C187.949 52.7626 187.973 52.7827 188 52.797C188.028 52.8113 188.058 52.8195 188.089 52.821C188.12 52.8225 188.151 52.8173 188.18 52.8058C188.209 52.7942 188.235 52.7766 188.256 52.754L189.023 51.9447C189.077 51.8879 189.151 51.8548 189.229 51.8526C189.308 51.8505 189.384 51.8796 189.441 51.9334L189.453 51.9454C189.481 51.972 189.504 52.004 189.52 52.0395C189.536 52.0749 189.544 52.1132 189.545 52.152C189.546 52.1908 189.54 52.2294 189.526 52.2657C189.512 52.3019 189.491 52.3351 189.464 52.3632L188.275 53.619C188.247 53.6481 188.214 53.6714 188.177 53.6872C188.14 53.7031 188.1 53.7113 188.06 53.7113Z" fill="#E6E6E6"/>
<path d="M161.962 22.8863C161.488 22.8863 161.024 22.7458 160.63 22.4824C160.236 22.219 159.929 21.8447 159.747 21.4068C159.566 20.9688 159.519 20.4869 159.611 20.022C159.703 19.557 159.932 19.13 160.267 18.7948C160.602 18.4596 161.029 18.2313 161.494 18.1388C161.959 18.0463 162.441 18.0938 162.879 18.2752C163.317 18.4566 163.691 18.7638 163.955 19.158C164.218 19.5521 164.359 20.0155 164.359 20.4896C164.358 21.125 164.105 21.7342 163.656 22.1835C163.206 22.6329 162.597 22.8856 161.962 22.8863ZM161.962 18.3678C161.542 18.3678 161.132 18.4923 160.783 18.7254C160.434 18.9585 160.162 19.2899 160.002 19.6776C159.841 20.0653 159.799 20.4919 159.881 20.9035C159.963 21.3151 160.165 21.6931 160.461 21.9898C160.758 22.2866 161.136 22.4886 161.548 22.5705C161.959 22.6524 162.386 22.6104 162.774 22.4498C163.161 22.2892 163.493 22.0172 163.726 21.6683C163.959 21.3194 164.083 20.9092 164.083 20.4896C164.083 19.927 163.859 19.3877 163.461 18.99C163.064 18.5922 162.524 18.3685 161.962 18.3678Z" fill="#E6E6E6"/>
<path d="M161.793 21.3926C161.788 21.3926 161.783 21.3924 161.778 21.3922C161.736 21.3901 161.694 21.3789 161.656 21.3592C161.619 21.3396 161.585 21.312 161.559 21.2784L161.182 20.793C161.158 20.7623 161.14 20.7273 161.13 20.6899C161.12 20.6524 161.117 20.6133 161.122 20.5748C161.126 20.5363 161.139 20.4991 161.158 20.4654C161.177 20.4316 161.203 20.402 161.234 20.3781L161.247 20.3676C161.278 20.3437 161.313 20.3261 161.35 20.3158C161.388 20.3055 161.427 20.3027 161.465 20.3075C161.504 20.3123 161.541 20.3247 161.575 20.3439C161.609 20.3631 161.638 20.3888 161.662 20.4194C161.681 20.4439 161.705 20.464 161.733 20.4783C161.76 20.4926 161.791 20.5008 161.822 20.5023C161.853 20.5038 161.884 20.4986 161.912 20.487C161.941 20.4755 161.967 20.4578 161.989 20.4353L162.755 19.626C162.809 19.5692 162.883 19.5361 162.962 19.5339C163.04 19.5318 163.116 19.5608 163.173 19.6146L163.186 19.6266C163.214 19.6533 163.236 19.6853 163.252 19.7208C163.268 19.7562 163.277 19.7944 163.278 19.8332C163.279 19.872 163.272 19.9107 163.258 19.9469C163.244 19.9832 163.224 20.0163 163.197 20.0445L162.007 21.3002C161.98 21.3294 161.946 21.3526 161.909 21.3685C161.873 21.3844 161.833 21.3926 161.793 21.3926Z" fill="#E6E6E6"/>
<path d="M181.15 64.1166C175.592 64.1166 169.205 57.9491 163.554 60.8794C146.443 69.7518 148.799 54.9053 143.883 49.3838L144.044 49.0601C149.468 53.9234 156.24 57.8804 163.628 60.5029C170.304 62.8731 177.031 63.9713 183.078 63.6815L183.088 64.0706C182.449 64.1014 181.803 64.1167 181.15 64.1166Z" fill="#F2F2F2"/>
<path d="M173.526 22.4173C174.168 22.4173 174.688 21.7198 174.688 20.8595C174.688 19.9991 174.168 19.3016 173.526 19.3016C172.885 19.3016 172.365 19.9991 172.365 20.8595C172.365 21.7198 172.885 22.4173 173.526 22.4173Z" fill="#E6E6E6"/>
<path d="M186.944 46.7197C186.413 47.0736 185.87 46.2313 186.411 45.8931C186.942 45.5393 187.486 46.3815 186.944 46.7197Z" fill="#E6E6E6"/>
<path d="M183.887 18.364C184.723 18.364 185.4 17.6867 185.4 16.8512C185.4 16.0157 184.723 15.3384 183.887 15.3384C183.052 15.3384 182.374 16.0157 182.374 16.8512C182.374 17.6867 183.052 18.364 183.887 18.364Z" fill="#FF6584"/>
<path opacity="0.3" d="M189.179 25.1411L197.787 0L188.334 24.8401C188.288 24.8991 188.256 24.9684 188.241 25.0422C188.226 25.116 188.23 25.1922 188.25 25.2645C188.271 25.3369 188.309 25.4032 188.36 25.4581C188.412 25.513 188.475 25.5548 188.546 25.58C188.617 25.6053 188.693 25.6133 188.768 25.6034C188.842 25.5935 188.913 25.5659 188.975 25.523C189.037 25.4801 189.088 25.4231 189.123 25.3566C189.158 25.2902 189.177 25.2163 189.179 25.1411Z" fill="#F0F0F0"/>
<path d="M180.489 55.7702C181.302 55.7702 181.961 55.1113 181.961 54.2984C181.961 53.4855 181.302 52.8265 180.489 52.8265C179.677 52.8265 179.018 53.4855 179.018 54.2984C179.018 55.1113 179.677 55.7702 180.489 55.7702Z" fill="#F2F2F2"/>
<path d="M166.234 54.8599C166.234 54.8599 162.565 57.2492 163.535 58.8368C163.569 58.8916 159.152 64.7245 159.152 64.7245L150.815 64.1953L150.521 66.9857L157.944 69.1354C157.944 69.1354 159.759 70.4694 161.162 68.9996C162.565 67.5298 167.237 63.0288 167.237 63.0288L167.463 72.1161L165.117 84.7084L168.619 84.4864L172.028 71.8531L173.286 57.5429L166.234 54.8599Z" fill="#2F2E41"/>
<path d="M168.848 40.5201L167.305 41.6895L165.546 45.4431L167.237 47.7399C167.237 47.7399 168.66 50.2053 166.383 52.5928C164.106 54.9804 162.357 57.5304 164.18 57.4394C166.002 57.3483 173.384 61.1027 173.432 58.0269C173.481 54.951 173.579 52.5928 173.579 52.5928L175.514 47.6844C175.514 47.6844 176.667 44.7562 175.858 43.8797C175.048 43.0032 173.965 41.8831 173.965 41.8831L171.993 39.9121H170.214L168.848 40.5201Z" fill="#FB9EFD"/>
<path d="M171.728 33.308C175.19 35.2778 172.348 40.4751 168.822 38.6244C165.361 36.6547 168.202 31.4574 171.728 33.308Z" fill="#A0616A"/>
<path d="M173.579 34.4001C173.337 34.7156 172.83 34.5677 171.838 34.7928C171.84 34.4564 171.801 34.121 171.722 33.7941C171.648 34.1989 171.486 34.5826 171.248 34.918C170.386 35.0136 171.443 37.6314 171.001 39.5561C170.433 35.4956 169.237 36.5594 169.841 37.3648C170.228 37.8804 169.97 39.4272 168.81 38.6538C166.896 39.5635 164.17 35.0446 167.191 32.9253C167.137 31.7798 168.412 31.5988 169.197 31.951C171.102 30.5321 173.278 32.3503 173.579 34.4001Z" fill="#2F2E41"/>
<path d="M164.698 31.4373C163.927 36.1757 159.796 30.5659 157.854 35.229C157.243 36.9176 158.291 38.1257 158.954 39.5274C159.105 40.6793 157.607 41.2637 157.45 42.3241C157.406 44.7551 161.328 44.6063 162.424 43.0726C163.551 41.467 162.206 39.3129 162.883 37.5896C163.834 35.197 167.705 35.1792 168.042 32.3956C167.389 31.4657 165.633 30.4006 164.698 31.4373Z" fill="#2F2E41"/>
<path d="M167.819 31.9004C167.794 31.911 167.769 31.9216 167.746 31.9335H167.745C167.724 31.9441 167.703 31.9548 167.681 31.9667C167.679 31.968 167.677 31.9694 167.675 31.9707C167.647 31.9441 167.619 31.9176 167.59 31.8911C167.582 31.9343 167.584 31.9786 167.595 32.0211L167.599 32.037C167.626 32.0649 167.654 32.0914 167.683 32.1193C167.709 32.0994 167.735 32.0782 167.761 32.0583C167.777 32.045 167.793 32.0317 167.81 32.0185C167.813 31.9839 167.817 31.9441 167.821 31.9003L167.819 31.9004ZM168.618 30.4248C168.026 30.2894 167.835 31.063 167.778 31.4359C167.563 30.0824 166.669 30.5084 166.978 31.4319C167.077 31.7054 167.232 31.955 167.433 32.1644C167.461 32.1963 167.492 32.2281 167.524 32.26C167.488 32.4457 167.668 32.398 167.912 32.2268C168.093 32.0986 168.259 31.9523 168.41 31.7902C168.897 31.2793 169.276 30.5959 168.618 30.4248ZM168.637 31.1864C168.454 31.4219 168.249 31.6392 168.025 31.8353C167.955 31.899 167.883 31.9601 167.81 32.0185C167.809 32.0304 167.809 32.041 167.807 32.0503C167.802 32.0632 167.796 32.0756 167.789 32.0875C167.715 32.2215 167.631 32.1485 167.599 32.037C167.597 32.033 167.593 32.0291 167.59 32.0251C167.484 31.9155 167.392 31.7934 167.315 31.6615C166.767 30.7114 167.65 30.0651 167.606 31.8393C167.598 31.8556 167.592 31.8731 167.59 31.8911C167.582 31.9343 167.584 31.9786 167.595 32.0211L167.599 32.037C167.626 32.0649 167.654 32.0914 167.683 32.1193C167.709 32.0994 167.735 32.0782 167.761 32.0583C167.777 32.045 167.793 32.0317 167.81 32.0185C167.813 31.9839 167.817 31.9441 167.821 31.9003V31.899C167.855 31.5434 167.949 30.9038 168.123 30.73C168.505 30.4367 169 30.7539 168.637 31.1864ZM167.819 31.9004C167.794 31.911 167.769 31.9216 167.746 31.9335H167.745C167.724 31.9441 167.703 31.9548 167.681 31.9667C167.679 31.968 167.677 31.9694 167.675 31.9707C167.647 31.9441 167.619 31.9176 167.59 31.8911C167.582 31.9343 167.584 31.9786 167.595 32.0211L167.599 32.037C167.626 32.0649 167.654 32.0914 167.683 32.1193C167.709 32.0994 167.735 32.0782 167.761 32.0583C167.777 32.045 167.793 32.0317 167.81 32.0185C167.813 31.9839 167.817 31.9441 167.821 31.9003L167.819 31.9004Z" fill="#2F2E41"/>
<path d="M199.814 58.0249L198.536 61.359L192.538 73.1891L197.808 86.951L200.528 86.233L198.286 73.1891L204.717 65.3748L212.355 70.555C212.355 70.555 215.742 73.1994 217.031 70.6925C218.32 68.1857 226.658 62.8535 226.658 62.8535L224.595 60.6531L214.993 65.1466L208.366 55.8185L199.814 58.0249Z" fill="#2F2E41"/>
<path d="M206.265 42.2981L204.16 40.0371L200.55 39.5404L196.127 42.6371L196.172 46.0647L198.358 54.1415C198.358 54.1415 197.525 59.9443 199.852 59.8861C202.178 59.8279 203.446 58.668 204.394 58.9042C205.341 59.1403 209.369 60.1451 209.624 59.0926C209.88 58.04 211.236 58.7937 211.177 57.798C211.117 56.8023 207.504 49.6252 207.504 49.6252L208.402 42.4475L206.265 42.2981Z" fill="#6C63FF"/>
<path d="M219.59 31.89C219.609 32.0775 219.586 32.2669 219.524 32.4447C219.462 32.6226 219.361 32.7847 219.23 32.9195C219.098 33.0543 218.938 33.1586 218.762 33.2251C218.586 33.2915 218.397 33.3185 218.209 33.3041L213.369 42.5083L212.07 40.5137L217.017 31.8269C217.062 31.5129 217.221 31.2263 217.463 31.0214C217.705 30.8166 218.014 30.7077 218.331 30.7155C218.649 30.7233 218.952 30.8471 219.184 31.0636C219.416 31.28 219.56 31.5741 219.59 31.89Z" fill="#FFB6B6"/>
<path d="M204.354 44.0094C204.354 44.0094 204.162 45.6466 206.006 46.052C207.849 46.4573 212.955 43.5395 213.792 43.0938C214.054 42.9543 214.41 42.2703 214.775 41.3964C214.939 41.0041 215.105 40.5736 215.265 40.1369C215.357 39.8842 215.8 39.8152 215.888 39.5646C215.974 39.3153 215.705 38.8844 215.784 38.6494C216.157 37.5344 216.421 36.6498 216.421 36.6498L215.199 34.3551C213.491 35.2583 212.614 37.2479 211.97 39.54L204.354 44.0094Z" fill="#6C63FF"/>
<path d="M182.829 34.0038C182.858 34.19 182.927 34.3677 183.032 34.5244C183.136 34.681 183.274 34.8127 183.435 34.9103C183.597 35.0079 183.777 35.0689 183.965 35.0891C184.152 35.1094 184.342 35.0882 184.52 35.0273L191.509 42.7274L192.268 40.4711L185.305 33.2987C185.182 33.0059 184.957 32.7682 184.671 32.6305C184.385 32.4928 184.059 32.4647 183.754 32.5516C183.448 32.6385 183.186 32.8344 183.015 33.102C182.845 33.3696 182.779 33.6905 182.829 34.0038Z" fill="#FFB6B6"/>
<path d="M200.613 41.9247C200.613 41.9247 201.208 43.4618 199.525 44.3155C197.842 45.1692 192.168 43.6222 191.246 43.4002C190.957 43.3307 190.442 42.7574 189.87 42.0028C189.613 41.664 189.345 41.2886 189.08 40.9058C188.928 40.6843 188.481 40.7284 188.334 40.5076C188.188 40.288 188.34 39.8034 188.206 39.5956C187.566 38.6094 187.088 37.819 187.088 37.819L187.697 35.2916C189.577 35.7386 190.923 37.4455 192.121 39.5034L200.613 41.9247Z" fill="#6C63FF"/>
<path d="M202.428 38.9651C204.325 38.9651 205.863 37.4272 205.863 35.5302C205.863 33.6332 204.325 32.0953 202.428 32.0953C200.531 32.0953 198.993 33.6332 198.993 35.5302C198.993 37.4272 200.531 38.9651 202.428 38.9651Z" fill="#FFB6B6"/>
<path d="M206.348 33.5635C205.987 33.0046 205.309 32.632 204.652 32.7367C204.591 32.3172 204.416 31.9226 204.146 31.5957C203.876 31.2688 203.521 31.0223 203.121 30.8829C202.721 30.7436 202.29 30.7167 201.875 30.8053C201.46 30.8939 201.078 31.0945 200.77 31.3853C200.668 31.3139 200.55 31.2699 200.427 31.2575C200.303 31.2452 200.179 31.2649 200.065 31.3148C199.839 31.4177 199.642 31.5756 199.493 31.7743C199.116 32.2446 198.873 32.8084 198.791 33.4057C198.709 34.003 198.79 34.6114 199.026 35.1661C198.946 34.8741 199.239 34.5993 199.534 34.5338C199.83 34.4683 200.14 34.5302 200.44 34.4876C200.824 34.4329 201.17 34.2099 201.555 34.1598C201.881 34.1385 202.209 34.1806 202.519 34.2837C202.829 34.3867 203.156 34.4306 203.483 34.4131C203.807 34.3747 204.224 35.6024 204.219 36.4672C204.218 36.6311 204.251 36.8415 204.412 36.8763C204.609 36.9191 204.723 36.6469 204.911 36.5727C204.997 36.5479 205.09 36.5577 205.17 36.5999C205.249 36.6422 205.309 36.7136 205.337 36.7992C205.36 36.8862 205.363 36.9777 205.344 37.0658C205.325 37.154 205.286 37.2365 205.229 37.3063C205.113 37.4446 204.976 37.5635 204.823 37.6582L204.9 37.7225C204.974 37.8 205.072 37.8496 205.178 37.8628C205.284 37.876 205.391 37.8519 205.481 37.7946C205.658 37.6746 205.802 37.5111 205.898 37.3199C206.26 36.7595 206.519 36.1389 206.663 35.4872C206.784 34.8328 206.71 34.1225 206.348 33.5635Z" fill="#2F2E41"/>
<path d="M231.76 47.111C227.329 50.4666 218.514 49.4065 215.778 55.1545C207.495 72.5578 200.409 59.3007 193.156 57.867L193.09 57.5115C200.35 58.1137 208.137 57.1794 215.61 54.8095C222.363 52.668 228.388 49.4823 233.033 45.6005L233.277 45.9043C232.786 46.3144 232.28 46.7166 231.76 47.111Z" fill="#F2F2F2"/>
</g>
<g clip-path="url(#clip1_222_326)">
<path d="M100.552 80.3118C100.437 80.1165 99.9372 80.3256 99.8453 80.1484C99.7538 79.9718 100.218 79.7028 100.483 79.0881C100.531 78.9772 100.833 78.2787 100.61 78.0632C100.187 77.6546 98.2508 79.3406 97.5734 78.7889C97.4247 78.6678 97.3208 78.4261 96.8709 78.0336C96.6919 77.8775 96.5837 77.807 96.4789 77.8332C96.3303 77.8705 96.3185 78.0699 96.1591 78.462C95.9201 79.0501 95.7787 79.0146 95.6394 79.4838C95.5361 79.8322 95.5597 80.0347 95.438 80.0741C95.2659 80.1299 95.1074 79.7605 94.8892 79.7936C94.6666 79.8273 94.532 80.2575 94.4895 80.5796C94.4097 81.184 94.6311 81.5828 94.7538 82.0021C94.8871 82.4579 94.9663 83.151 94.6583 84.1321L91.6104 92.742C92.2833 90.9752 94.2316 86.1322 95.0503 84.3325C95.2867 83.813 95.5476 83.286 96.0835 83.078C96.5993 82.8778 97.3078 82.9973 98.2111 82.7792C98.3165 82.7537 98.6093 82.679 98.6461 82.5064C98.6766 82.3637 98.5044 82.284 98.5308 82.1504C98.5663 81.9711 98.9049 81.9689 99.321 81.762C99.6144 81.6162 99.7972 81.4427 99.9544 81.2936C100.002 81.2486 100.706 80.5718 100.552 80.3118Z" fill="#F2F2F2"/>
<path d="M88.5609 84.8444C88.4319 84.8449 88.3901 85.1511 88.2768 85.1452C88.164 85.1393 88.1662 84.8332 87.9419 84.5253C87.9014 84.4698 87.6464 84.1199 87.4765 84.1675C87.1545 84.2578 87.4213 85.6968 86.9557 85.8709C86.8536 85.9091 86.7053 85.8905 86.3833 85.9987C86.2553 86.0417 86.1895 86.0746 86.1721 86.1337C86.1475 86.2176 86.2417 86.281 86.3877 86.4725C86.6066 86.7598 86.5484 86.8192 86.738 87.0231C86.8786 87.1744 86.9846 87.2213 86.9688 87.2925C86.9465 87.3933 86.7199 87.3647 86.6731 87.4816C86.6254 87.6009 86.7972 87.7912 86.9426 87.9051C87.2154 88.1187 87.4745 88.1249 87.7152 88.1855C87.9768 88.2514 88.339 88.4124 88.7304 88.847L92.0659 92.8311C91.3951 91.9902 89.5864 89.6341 88.9416 88.712C88.7555 88.4458 88.5728 88.1653 88.6256 87.8416C88.6764 87.53 88.9394 87.2159 89.0932 86.7085C89.1111 86.6492 89.159 86.4836 89.0852 86.4157C89.0241 86.3595 88.9354 86.4213 88.8776 86.3697C88.8001 86.3005 88.8967 86.1332 88.9155 85.8688C88.9288 85.6823 88.8966 85.5423 88.8689 85.4219C88.8606 85.3856 88.7325 84.8437 88.5609 84.8444Z" fill="#F2F2F2"/>
<path d="M91.1331 85.4233L91.0554 84.7281L91.0909 84.6754C91.2551 84.4317 91.3389 84.1937 91.3399 83.9678C91.34 83.9319 91.3383 83.8959 91.3367 83.8594C91.33 83.7143 91.3216 83.5341 91.4154 83.3239C91.4679 83.2068 91.6156 82.9355 91.8376 82.9691C91.8973 82.9775 91.9426 83.005 91.9769 83.0372C91.9819 83.0292 91.9871 83.0211 91.9926 83.0124C92.0617 82.9067 92.1165 82.8613 92.1692 82.8177C92.2097 82.7841 92.2516 82.7496 92.3172 82.6677C92.346 82.6317 92.3685 82.6002 92.3874 82.5737C92.4448 82.4934 92.5198 82.3978 92.6521 82.3994C92.7933 82.4062 92.8673 82.5233 92.9164 82.6009C93.004 82.7392 93.0436 82.8389 93.0699 82.905C93.0795 82.9292 93.0903 82.9563 93.0959 82.9647C93.1414 83.0319 93.5116 82.9691 93.651 82.9463C93.9642 82.8939 94.2353 82.8486 94.347 83.0466C94.427 83.1883 94.3675 83.3756 94.165 83.6183C94.1019 83.6939 94.0347 83.7513 93.9751 83.7962C94.0245 83.8258 94.0687 83.8711 94.0866 83.9423C94.1288 84.1108 93.9843 84.2796 93.6574 84.4448C93.5762 84.4861 93.4669 84.5412 93.3137 84.5677C93.2415 84.5801 93.1766 84.5831 93.121 84.5848C93.1198 84.617 93.1123 84.6519 93.0927 84.6878C93.0353 84.7936 92.9157 84.8439 92.7356 84.8319C92.5374 84.8215 92.3741 84.7835 92.2302 84.7503C92.1044 84.7214 91.9961 84.6969 91.9111 84.7026C91.7534 84.7154 91.6318 84.8419 91.4892 85.0061L91.1331 85.4233Z" fill="#F2F2F2"/>
<path d="M91.4934 81.284L90.8423 81.5357L90.7825 81.5146C90.5057 81.4172 90.2548 81.3964 90.0366 81.4527C90.0019 81.4616 89.9677 81.4724 89.9328 81.4833C89.7946 81.5266 89.6228 81.5804 89.3962 81.5428C89.2699 81.5215 88.9707 81.4471 88.9468 81.2233C88.9397 81.1632 88.9548 81.1124 88.9772 81.071C88.9682 81.0681 88.9591 81.0651 88.9493 81.062C88.8297 81.0218 88.7721 80.9802 88.7166 80.9401C88.6739 80.9093 88.63 80.8775 88.5343 80.8346C88.4923 80.8158 88.4562 80.8021 88.4258 80.7904C88.3338 80.7551 88.2225 80.7066 88.1906 80.578C88.1612 80.4392 88.2555 80.3377 88.3179 80.2705C88.4291 80.1505 88.5152 80.0867 88.5724 80.0445C88.5933 80.0291 88.6167 80.0116 88.6234 80.0042C88.6766 79.943 88.5222 79.5999 88.4648 79.4705C88.3348 79.18 88.2223 78.9286 88.3851 78.7701C88.5015 78.6566 88.6973 78.6667 88.9828 78.8016C89.0717 78.8436 89.1441 78.8942 89.2027 78.9406C89.2186 78.8852 89.2511 78.8308 89.3153 78.7954C89.4671 78.7117 89.6667 78.809 89.909 79.0842C89.9694 79.1525 90.0503 79.2445 90.1147 79.3863C90.145 79.4532 90.1644 79.5154 90.1801 79.5689C90.2115 79.5618 90.2471 79.5603 90.2867 79.5702C90.4033 79.599 90.4822 79.7022 90.5162 79.88C90.5565 80.0748 90.5613 80.2427 90.5657 80.3908C90.5698 80.5201 90.5736 80.6313 90.6007 80.7123C90.653 80.8621 90.8059 80.9478 91.0005 81.0445L91.4934 81.284Z" fill="#F2F2F2"/>
<path d="M91.1331 79.2358L91.0554 78.5406L91.0909 78.4879C91.2551 78.2442 91.3389 78.0062 91.3399 77.7803C91.34 77.7444 91.3383 77.7084 91.3367 77.6719C91.33 77.5268 91.3216 77.3466 91.4154 77.1364C91.4679 77.0193 91.6156 76.748 91.8376 76.7816C91.8973 76.79 91.9426 76.8175 91.9769 76.8497C91.9819 76.8417 91.9871 76.8336 91.9926 76.8249C92.0617 76.7192 92.1165 76.6738 92.1692 76.6302C92.2097 76.5966 92.2516 76.5621 92.3172 76.4802C92.346 76.4442 92.3685 76.4127 92.3874 76.3862C92.4448 76.3059 92.5198 76.2103 92.6521 76.2119C92.7933 76.2187 92.8673 76.3358 92.9164 76.4134C93.004 76.5517 93.0436 76.6514 93.0699 76.7175C93.0795 76.7417 93.0903 76.7688 93.0959 76.7772C93.1414 76.8444 93.5116 76.7816 93.651 76.7588C93.9642 76.7064 94.2353 76.6611 94.347 76.8591C94.427 77.0008 94.3675 77.1881 94.165 77.4308C94.1019 77.5064 94.0347 77.5638 93.9751 77.6087C94.0245 77.6383 94.0687 77.6836 94.0866 77.7548C94.1288 77.9233 93.9843 78.0921 93.6574 78.2573C93.5762 78.2986 93.4669 78.3537 93.3137 78.3802C93.2415 78.3926 93.1766 78.3956 93.121 78.3973C93.1198 78.4295 93.1123 78.4644 93.0927 78.5003C93.0353 78.6061 92.9157 78.6564 92.7356 78.6444C92.5374 78.634 92.3741 78.596 92.2302 78.5628C92.1044 78.5339 91.9961 78.5094 91.9111 78.5151C91.7534 78.5279 91.6318 78.6544 91.4892 78.8186L91.1331 79.2358Z" fill="#F2F2F2"/>
<path d="M91.8425 92.7307L91.6972 92.6394L91.5278 92.6589C91.5251 92.6431 91.5159 92.6068 91.502 92.5501C91.4261 92.2393 91.1949 91.2933 91.0021 89.8035C90.8675 88.7635 90.7913 87.6943 90.7756 86.6252C90.7598 85.5543 90.8104 84.7436 90.8509 84.092C90.8815 83.6006 90.9187 83.1326 90.9552 82.6767C91.0523 81.4589 91.1439 80.3084 91.0757 79.0348C91.0607 78.7505 91.029 78.1587 90.6841 77.5289C90.4841 77.1637 90.2085 76.8394 89.865 76.5655L90.0786 76.2963C90.4578 76.5991 90.7627 76.9582 90.9848 77.3638C91.3672 78.062 91.4017 78.7069 91.4183 79.0167C91.4876 80.3128 91.395 81.4743 91.2969 82.7039C91.2607 83.1581 91.2236 83.6241 91.1931 84.1135C91.1529 84.7591 91.1029 85.5627 91.1184 86.6198C91.1338 87.6762 91.2092 88.7323 91.3419 89.7592C91.5324 91.2302 91.7603 92.1621 91.8351 92.4682C91.875 92.6317 91.8833 92.6659 91.8425 92.7307Z" fill="#F2F2F2"/>
<path d="M89.2362 77.1116C89.2221 77.1116 89.2079 77.1113 89.1935 77.1103C88.9015 77.0945 88.6311 76.9193 88.3897 76.5896C88.2765 76.4345 88.2186 76.2576 88.1031 75.9048C88.0852 75.8504 87.9981 75.5745 87.9452 75.1948C87.9106 74.9467 87.9149 74.843 87.964 74.7514C88.0184 74.6493 88.1064 74.5782 88.2056 74.5302C88.2012 74.4973 88.2047 74.4634 88.2189 74.4288C88.2774 74.2854 88.4327 74.3042 88.5168 74.3133C88.5593 74.3187 88.6124 74.3257 88.6696 74.3227C88.7597 74.3183 88.8081 74.2915 88.8814 74.2512C88.9516 74.2126 89.0388 74.1646 89.1682 74.1381C89.4233 74.0847 89.6371 74.1572 89.7076 74.181C90.0784 74.3049 90.2612 74.5939 90.4728 74.9286C90.515 74.9958 90.6598 75.2401 90.7554 75.5752C90.8244 75.8169 90.8147 75.9243 90.7939 76.0042C90.7518 76.1683 90.6521 76.2623 90.3992 76.4698C90.135 76.687 90.0024 76.7957 89.8886 76.8619C89.6236 77.0153 89.4571 77.1116 89.2362 77.1116Z" fill="#F2F2F2"/>
<path d="M105.297 92.1424L106.195 92.1424L106.622 88.6702L105.297 88.6703L105.297 92.1424Z" fill="#FFB6B6"/>
<path d="M108.373 92.1221C108.401 92.1693 108.416 92.3216 108.416 92.3765C108.416 92.5453 108.279 92.6821 108.111 92.6821H105.33C105.216 92.6821 105.123 92.5888 105.123 92.4736V92.3576C105.123 92.3576 104.985 92.0087 105.268 91.5788C105.268 91.5788 105.62 91.9154 106.146 91.3881L106.301 91.1064L107.424 91.9296L108.046 92.0064C108.182 92.0232 108.303 92.0038 108.373 92.1221Z" fill="#2F2E41"/>
<path d="M102.561 92.1424L103.459 92.1424L103.886 88.6702L102.561 88.6703L102.561 92.1424Z" fill="#FFB6B6"/>
<path d="M105.637 92.1221C105.665 92.1693 105.679 92.3216 105.679 92.3765C105.679 92.5453 105.543 92.6821 105.375 92.6821H102.594C102.479 92.6821 102.386 92.5888 102.386 92.4736V92.3576C102.386 92.3576 102.249 92.0087 102.532 91.5788C102.532 91.5788 102.884 91.9154 103.41 91.3881L103.565 91.1064L104.688 91.9296L105.31 92.0064C105.446 92.0232 105.567 92.0038 105.637 92.1221Z" fill="#2F2E41"/>
<path d="M106.334 77.1476L107.292 80.866L106.813 90.4146L104.555 90.5661L104.419 85.0693L104.145 90.7277L101.819 90.2427L101.682 77.7943L106.334 77.1476Z" fill="#2F2E41"/>
<path d="M97.0626 64.6281C96.7536 64.0844 96.2233 63.8036 95.8783 64.0008C95.5332 64.198 95.504 64.7986 95.8132 65.3424C95.9338 65.5613 96.1049 65.7481 96.3122 65.8872L97.6505 68.1741L98.7076 67.5216L97.276 65.3363C97.2623 65.0865 97.1891 64.8437 97.0626 64.6281Z" fill="#FFB6B6"/>
<path d="M103.145 72.7015C103.145 72.7015 101.876 74.4543 101.101 73.8279C100.325 73.2016 96.0386 66.1608 96.0386 66.1608L97.7396 65.2467L103.145 72.7015Z" fill="#6C63FF"/>
<path d="M101.956 70.5632L103.598 68.0941L105.24 68.78L104.829 70.9748L101.956 70.5632Z" fill="#FFB6B6"/>
<path d="M102.093 70.0145L104.966 69.8773L106.882 70.426L107.292 80.5768L101.546 80.0281V74.6751L100.725 71.9349L102.093 70.0145Z" fill="#6C63FF"/>
<path d="M106.835 76.8617C106.734 76.5665 106.694 76.2548 106.72 75.9438C106.793 75.0662 106.807 73.3465 105.915 72.5696L105.411 72.0223C105.4 72.0109 105.388 72.0011 105.378 71.99L106.212 70.0249L105.708 69.8102L104.934 71.6341C104.591 71.4247 104.195 71.3087 103.785 71.3087C103.312 71.3087 102.86 71.4634 102.486 71.7357L102.014 70.0019L101.486 70.1464L102.076 72.1237C102.055 72.1499 102.031 72.1741 102.011 72.2014L101.723 72.5894C101.653 72.6839 101.575 72.7716 101.491 72.854C101.314 73.0278 100.969 73.4497 100.966 74.0994C100.964 74.3216 100.919 74.5413 100.851 74.7529L100.509 75.8267C100.476 75.9275 100.451 76.0302 100.434 76.1346C100.283 77.0541 99.7598 81.386 103.335 81.2993C106.667 81.2184 106.887 79.184 106.867 78.5083C106.863 78.3617 106.876 78.2162 106.903 78.0721C106.953 77.8078 106.998 77.3401 106.835 76.8617Z" fill="#3F3D56"/>
<path d="M121.89 33.0137L122.201 37.8376L118.282 38.7391L118.555 34.8387L121.89 33.0137Z" fill="#FFB6B6"/>
<path d="M122.188 91.6403L120.422 91.6401L119.581 84.8094L122.188 84.8096L122.188 91.6403Z" fill="#FFB6B6"/>
<path d="M116.136 91.6002C116.081 91.693 116.052 91.9928 116.052 92.1008C116.052 92.4327 116.321 92.7018 116.652 92.7018H122.122C122.348 92.7018 122.531 92.5182 122.531 92.2918V92.0634C122.531 92.0634 122.802 91.3772 122.244 90.5314C122.244 90.5314 121.552 91.1937 120.517 90.1563L120.212 89.6022L118.004 91.2216L116.779 91.3727C116.512 91.4057 116.274 91.3676 116.136 91.6002Z" fill="#2F2E41"/>
<path d="M126.977 91.6404L125.211 91.6402L124.37 84.8096L126.977 84.8098L126.977 91.6404Z" fill="#FFB6B6"/>
<path d="M120.925 91.6003C120.87 91.6932 120.841 91.9929 120.841 92.1009C120.841 92.4328 121.109 92.7019 121.441 92.7019H126.911C127.137 92.7019 127.32 92.5184 127.32 92.2919V92.0636C127.32 92.0636 127.59 91.3773 127.033 90.5315C127.033 90.5315 126.341 91.1938 125.306 90.1565L125.001 89.6023L122.792 91.2217L121.568 91.3728C121.3 91.4058 121.063 91.3677 120.925 91.6003Z" fill="#2F2E41"/>
<path d="M128.089 59.1779C128.089 59.1779 129.594 61.0983 129.32 62.1957C129.047 63.2931 127.131 88.5329 127.131 88.5329L124.395 88.3958L122.753 65.7622L122.331 88.5329L119.743 88.3958L116.459 60.1381L128.089 59.1779Z" fill="#2F2E41"/>
<path d="M112.268 65.3011C112.01 66.2954 111.288 66.9674 110.657 66.8023C110.026 66.6371 109.724 65.6973 109.983 64.7027C110.081 64.304 110.273 63.9346 110.543 63.6255L111.692 59.4268L113.646 60.0095L112.305 64.0868C112.39 64.4888 112.377 64.9051 112.268 65.3011Z" fill="#FFB6B6"/>
<path d="M118.706 37.0168C120.866 37.0168 122.616 35.2619 122.616 33.0972C122.616 30.9325 120.866 29.1776 118.706 29.1776C116.547 29.1776 114.797 30.9325 114.797 33.0972C114.797 35.2619 116.547 37.0168 118.706 37.0168Z" fill="#FFB6B6"/>
<path d="M118.238 38.0531L122.342 37.2301L126.857 39.562L127.815 54.5139L129.047 60.138L116.322 60.2752L116.87 52.7307L116.049 40.7966L118.238 38.0531Z" fill="#E6E6E6"/>
<path d="M117.28 41.2082C117.28 41.2082 115.091 40.5223 114.27 41.7569C113.449 42.9914 111.944 54.1025 111.944 54.1025L110.439 62.47L113.176 62.8816L117.691 48.204L117.28 41.2082Z" fill="#E6E6E6"/>
<path d="M137.192 60.4921C137.638 61.4172 137.524 62.3978 136.936 62.6823C136.349 62.9668 135.512 62.4475 135.065 61.522C134.882 61.1547 134.789 60.7488 134.795 60.3382L132.954 56.3946L134.818 55.5681L136.435 59.5436C136.759 59.7946 137.019 60.1198 137.192 60.4921Z" fill="#FFB6B6"/>
<path d="M125.144 39.7043C125.144 39.7043 127.11 38.52 128.198 39.5256C129.286 40.5312 133.363 50.9727 133.363 50.9727L136.794 58.7482L134.232 59.7952L126.391 46.5998L125.144 39.7043Z" fill="#E6E6E6"/>
<path d="M110.558 65.7334C110.802 65.1575 111.296 64.817 111.662 64.9728C112.027 65.1287 112.126 65.7218 111.881 66.2978C111.787 66.5293 111.639 66.7347 111.449 66.8969L110.383 69.3238L109.258 68.7983L110.428 66.4616C110.412 66.2119 110.457 65.9622 110.558 65.7334Z" fill="#FFB6B6"/>
<path d="M103.443 69.9171C104.833 69.9171 105.959 68.7875 105.959 67.3941C105.959 66.0007 104.833 64.8711 103.443 64.8711C102.053 64.8711 100.926 66.0007 100.926 67.3941C100.926 68.7875 102.053 69.9171 103.443 69.9171Z" fill="#FFB6B6"/>
<path d="M106.608 70.4261L109.071 69.4658L109.892 66.5852L111.67 67.2711L110.302 71.3863L106.608 72.8012V70.4261Z" fill="#6C63FF"/>
<path d="M103.112 70.1994L104.613 68.9751C104.613 68.9751 104.471 67.1402 105.01 66.9752C105.55 66.8101 106.113 66.151 106.113 66.151C106.113 66.151 105.219 64.1285 103.648 64.4354C102.076 64.7423 102.434 64.2754 101.466 64.7898C100.497 65.3041 100.27 65.9904 100.388 66.7196C100.505 67.4488 100.155 69.2604 101.328 69.3537C102.501 69.447 103.112 70.1994 103.112 70.1994Z" fill="#2F2E41"/>
<path d="M116.338 33.9747C116.053 33.4531 116.201 33.2041 115.944 33.0002C115.944 33.0002 115.84 32.9181 115.06 32.8136C114.986 31.5344 114.779 31.3634 114.779 31.3634C114.541 31.1664 114.162 31.1939 113.921 31.2834C113.41 31.4726 113.428 31.9713 113.088 32.0393C112.62 32.1332 113.897 31.3301 113.882 30.4806C113.87 29.7877 114.365 29.1552 114.538 29.2046C114.709 29.2535 115.167 28.7544 115.391 28.7806C115.544 28.7985 116.193 28.5755 116.36 28.6104C116.542 28.6485 117.124 29.0148 117.155 28.9442C117.371 28.454 117.33 28.3099 117.491 28.1776C117.776 27.9431 118.194 28.1558 118.865 28.3057C120.245 28.6141 120.525 28.1722 121.216 28.5423C121.564 28.7292 121.833 29.1795 122.355 30.0725C123.086 31.3214 123.452 31.9458 123.399 32.6358C123.346 33.3394 123.01 33.2675 122.778 34.297C122.519 35.4429 122.83 36.0012 122.414 36.3469C122.093 36.6141 119.429 36.6347 119.132 36.3537C118.621 35.8727 119.419 34.8745 118.877 34.0551C118.545 33.5522 117.817 33.282 117.457 33.4886C117.051 33.7223 117.201 34.5157 116.924 34.5677C116.687 34.6121 116.388 34.0656 116.338 33.9747Z" fill="#2F2E41"/>
<path d="M97.3899 65.8618C97.9345 65.4005 97.7899 64.3311 97.0669 63.4731C96.7505 63.0975 96.3756 62.8247 96.0085 62.6754L95.5865 62.1872L90.1374 55.342C90.1374 55.342 87.1198 48.5325 86.229 47.7968C85.3382 47.0611 84.2901 47.4441 84.2901 47.4441L83.4724 48.4584L88.5681 57.9662L93.7832 63.228L94.4872 63.9639C94.5727 64.3518 94.7783 64.7679 95.0948 65.1434C95.8178 66.0014 96.8453 66.3231 97.3899 65.8618Z" fill="#FFB6B6"/>
<path d="M87.104 49.0629L88.4695 51.0707L90.4299 53.9796L86.9074 55.2012L83.7974 49.8509L87.104 49.0629Z" fill="#E6E6E6"/>
<path d="M88.4905 42.2295L87.5015 46.0098L83.731 45.2661C83.731 45.2661 85.2145 42.5394 84.8436 41.2999L88.4905 42.2295Z" fill="#FFB6B6"/>
<path d="M84.5102 91.4374L86.7808 91.4371L87.861 82.6564L84.5098 82.6566L84.5102 91.4374Z" fill="#FFB6B6"/>
<path d="M92.2896 91.3858C92.3603 91.5052 92.3976 91.8905 92.3976 92.0293C92.3976 92.456 92.0525 92.8019 91.6269 92.8019H84.5951C84.3047 92.8019 84.0693 92.5659 84.0693 92.2748V91.9813C84.0693 91.9813 83.7215 91.0992 84.4376 90.0119C84.4376 90.0119 85.3278 90.8632 86.6578 89.5298L87.05 88.8174L89.8892 90.8991L91.4629 91.0934C91.8072 91.1358 92.1125 91.0868 92.2896 91.3858Z" fill="#2F2E41"/>
<path d="M90.8147 66.0256L87.6858 87.3717H83.7603L84.2823 75.1869L84.557 68.78L83.7603 65.7303C83.7603 65.7303 83.3971 65.0524 83.091 64.2307C82.7461 63.3034 82.4737 62.1917 82.8781 61.6646C83.0269 61.4703 83.4139 61.3264 83.9396 61.2193C84.2609 61.1535 84.6349 61.1022 85.0386 61.0625C87.36 60.8322 90.662 60.976 90.662 60.976L90.746 63.7533L90.7925 65.3041L90.8147 66.0256Z" fill="#2F2E41"/>
<path d="M80.5105 90.3935L82.757 90.7244L85.0996 82.1945L81.784 81.7061L80.5105 90.3935Z" fill="#FFB6B6"/>
<path d="M88.2145 91.4768C88.2671 91.6052 88.2481 91.9919 88.228 92.1292C88.1661 92.5514 87.7745 92.8433 87.3534 92.7813L80.3964 91.7558C80.1091 91.7135 79.9104 91.4456 79.9527 91.1576L79.9953 90.8672C79.9953 90.8672 79.7791 89.9437 80.6454 88.9724C80.6454 88.9724 81.4025 89.9446 82.9119 88.8192L83.4033 88.1716L85.9102 90.6453L87.439 91.0669C87.7735 91.1592 88.0826 91.1551 88.2145 91.4768Z" fill="#2F2E41"/>
<path d="M90.8641 62.4658L90.4349 66.1711L88.0946 73.9793L84.242 86.8341L80.3586 86.262L83.8439 67.9842L83.4988 64.8501C83.4988 64.8501 83.3864 64.5386 83.2576 64.0825C83.0019 63.1802 82.6812 61.7108 83.034 60.9612C83.0816 60.8594 83.1415 60.771 83.2154 60.6994C83.3542 60.5644 83.6363 60.4825 84.0142 60.439C85.5937 60.2601 88.8467 60.772 90.2942 61.0233L90.8641 62.4658Z" fill="#2F2E41"/>
<path d="M87.8722 44.8943L92.1373 50.2859L91.3717 55.9071L90.7156 61.6268L82.989 60.4493C82.989 60.4493 84.6579 56.4211 84.8434 56.2352C85.0288 56.0493 85.4946 56.5085 85.169 55.9071C84.8434 55.3057 84.4725 55.3057 84.7816 54.9958C85.0906 54.6859 82.3708 50.6577 82.3708 48.4887C82.3708 46.3197 83.6689 44.5845 83.6689 44.5845L87.8722 44.8943Z" fill="#E6E6E6"/>
<path d="M86.8773 42.9435C88.4641 42.9435 89.7505 41.6538 89.7505 40.063C89.7505 38.4721 88.4641 37.1824 86.8773 37.1824C85.2905 37.1824 84.0042 38.4721 84.0042 40.063C84.0042 41.6538 85.2905 42.9435 86.8773 42.9435Z" fill="#FFB6B6"/>
<path d="M86.7429 45.5704C86.7429 45.5704 87.1728 42.1598 87.2489 41.168C87.325 40.1761 88.7215 38.6276 88.7215 38.6276L89.7108 39.4287C89.7108 39.4287 90.5478 39.4287 89.9771 38.208C89.4064 36.9872 88.341 36.7965 88.341 36.7965C88.341 36.7965 88.2268 35.1943 86.2483 35.385C84.2697 35.5758 83.3945 37.178 83.3945 37.178C83.3945 37.178 83.2804 35.1562 82.0248 36.6439C80.7691 38.1317 80.0462 38.742 81.3779 39.2379C82.7096 39.7339 83.6989 39.3524 83.6989 39.3524C83.6989 39.3524 82.4053 39.6194 82.6335 40.535C82.8618 41.4505 79.6276 45.6086 81.1116 46.0663C82.5955 46.5241 85.9058 47.6304 86.2863 46.9056C86.6668 46.1808 86.7429 45.5704 86.7429 45.5704Z" fill="#2F2E41"/>
<path d="M98.5867 66.1475C99.1351 65.6909 98.9995 64.6203 98.2837 63.7562C97.9704 63.378 97.5978 63.1021 97.232 62.9496L96.8141 62.4579L91.4224 55.5671C91.4224 55.5671 88.4618 48.7325 87.5772 47.9894C86.6926 47.2463 85.6414 47.6205 85.6414 47.6205L84.8152 48.6278L89.8312 58.1781L95.0021 63.4836L95.6999 64.2253C95.7822 64.6139 95.9843 65.0317 96.2977 65.4099C97.0134 66.274 98.0383 66.6042 98.5867 66.1475Z" fill="#FFB6B6"/>
<path d="M84.5022 47.0907C84.5022 47.0907 85.8221 53.9578 87.3241 54.9702L90.317 52.6304C90.317 52.6304 90.579 52.6191 90.0915 52.067C89.604 51.515 89.7288 50.3295 89.7288 50.3295C89.7288 50.3295 89.9482 50.614 89.4709 50.219C88.9936 49.8241 89.4379 47.1076 89.4379 47.1076L84.5022 47.0907Z" fill="#E6E6E6"/>
<path d="M106.301 75.4226C106.238 75.4226 106.182 75.3786 106.168 75.3142L106.017 74.6136C105.796 73.5832 104.908 72.8307 103.858 72.7836C102.885 72.7399 101.983 73.3178 101.613 74.2209L101.236 75.1435C101.207 75.2136 101.128 75.247 101.058 75.2183C100.988 75.1895 100.954 75.1094 100.983 75.0394L101.36 74.1169C101.774 73.1069 102.781 72.4618 103.87 72.5096C105.045 72.5621 106.038 73.4036 106.285 74.5558L106.435 75.2565C106.451 75.3306 106.404 75.4035 106.33 75.4195C106.321 75.4215 106.311 75.4226 106.301 75.4226Z" fill="#FFB6B6"/>
<path d="M106.463 77.6536C106.459 77.6536 106.455 77.6534 106.451 77.6531L101.388 77.2004C101.312 77.1936 101.257 77.1271 101.263 77.0516C101.27 76.9762 101.336 76.9208 101.412 76.9271L106.475 77.3798C106.55 77.3865 106.606 77.4531 106.599 77.5286C106.593 77.5999 106.533 77.6536 106.463 77.6536Z" fill="#FFB6B6"/>
</g>
<defs>
<clipPath id="clip0_222_326">
<rect width="92.2409" height="92.9269" fill="white" transform="translate(141.036)"/>
</clipPath>
<clipPath id="clip1_222_326">
<rect width="61.9187" height="64.8047" fill="white" transform="translate(75.5452 28.0731)"/>
</clipPath>
</defs>
</svg>
