<svg width="80" height="80" viewBox="0 0 80 80" fill="none" xmlns="http://www.w3.org/2000/svg">
<circle cx="40" cy="40" r="40" fill="#846BFF"/>
<path d="M31.7649 57.2351C32.2551 57.7245 32.9196 57.9994 33.6123 57.9994C34.305 57.9994 34.9694 57.7245 35.4597 57.2351L50.2337 42.476C50.8037 41.9061 51.0587 41.1361 50.9887 40.3912C50.9887 39.7162 50.7362 39.0438 50.2237 38.5313L35.4572 23.7647C35.2147 23.5223 34.9269 23.33 34.6101 23.1988C34.2934 23.0675 33.9539 23 33.611 23C33.2682 23 32.9287 23.0675 32.6119 23.1988C32.2951 23.33 32.0073 23.5223 31.7649 23.7647C31.5225 24.0071 31.3301 24.295 31.1989 24.6117C31.0677 24.9285 31.0002 25.268 31.0002 25.6108C31.0002 25.9537 31.0677 26.2932 31.1989 26.61C31.3301 26.9267 31.5225 27.2145 31.7649 27.457L44.8141 40.5062L31.7649 53.5453C31.5224 53.7875 31.33 54.0751 31.1988 54.3916C31.0676 54.7082 31 55.0475 31 55.3902C31 55.7329 31.0676 56.0722 31.1988 56.3888C31.33 56.7054 31.5224 56.9929 31.7649 57.2351Z" fill="white"/>
</svg>
