<svg width="32" height="32" viewBox="0 0 32 32" fill="none" xmlns="http://www.w3.org/2000/svg">
<path d="M7.31734 15.0135L2 29.986L16.9725 24.6827" stroke="black" stroke-width="2.48268" stroke-linecap="round" stroke-linejoin="round"/>
<path d="M4.79858 3.39929H4.81258" stroke="black" stroke-width="2.48268" stroke-linecap="round" stroke-linejoin="round"/>
<path d="M29.9858 10.3958H29.9998" stroke="black" stroke-width="2.48268" stroke-linecap="round" stroke-linejoin="round"/>
<path d="M20.1909 2H20.2049" stroke="black" stroke-width="2.48268" stroke-linecap="round" stroke-linejoin="round"/>
<path d="M29.9858 27.1874H29.9998" stroke="black" stroke-width="2.48268" stroke-linecap="round" stroke-linejoin="round"/>
<path d="M29.9859 2L26.8515 3.04948C25.9593 3.34667 25.198 3.94452 24.6977 4.74084C24.1975 5.53716 23.9893 6.48251 24.1088 7.41529C24.2488 8.61869 23.3112 9.69615 22.0799 9.69615H21.5481C20.3447 9.69615 19.3092 10.5357 19.0854 11.7111L18.7915 13.1944" stroke="black" stroke-width="2.48268" stroke-linecap="round" stroke-linejoin="round"/>
<path d="M29.986 17.3923L28.8386 16.9305C27.6352 16.4547 26.2919 17.2103 26.068 18.4837C25.914 19.4632 25.0605 20.1909 24.067 20.1909H22.9895" stroke="black" stroke-width="2.48268" stroke-linecap="round" stroke-linejoin="round"/>
<path d="M14.5935 2L15.0553 3.14743C15.5311 4.35082 14.7754 5.69415 13.5021 5.91804C12.5226 6.05797 11.7949 6.92554 11.7949 7.91904V8.9965" stroke="black" stroke-width="2.48268" stroke-linecap="round" stroke-linejoin="round"/>
<path d="M14.5938 17.3923C17.2945 20.0929 18.5538 23.2273 17.3924 24.3888C16.231 25.5502 13.0966 24.2908 10.3959 21.5902C7.69527 18.8895 6.4359 15.7551 7.59732 14.5937C8.75874 13.4322 11.8932 14.6916 14.5938 17.3923Z" stroke="black" stroke-width="2.48268" stroke-linecap="round" stroke-linejoin="round"/>
</svg>
