<svg width="80" height="80" viewBox="0 0 80 80" fill="none" xmlns="http://www.w3.org/2000/svg">
<circle cx="40" cy="40" r="40" transform="rotate(-180 40 40)" fill="#846BFF"/>
<path d="M48.2351 22.7649C47.7449 22.2755 47.0804 22.0006 46.3877 22.0006C45.695 22.0006 45.0306 22.2755 44.5403 22.7649L29.7663 37.524C29.1963 38.0939 28.9413 38.8639 29.0113 39.6088C29.0113 40.2838 29.2638 40.9562 29.7763 41.4687L44.5428 56.2353C44.7853 56.4777 45.0731 56.67 45.3899 56.8012C45.7066 56.9325 46.0461 57 46.389 57C46.7318 57 47.0713 56.9325 47.3881 56.8012C47.7049 56.67 47.9927 56.4777 48.2351 56.2353C48.4775 55.9929 48.6699 55.705 48.8011 55.3883C48.9323 55.0715 48.9998 54.732 48.9998 54.3892C48.9998 54.0463 48.9323 53.7068 48.8011 53.39C48.6699 53.0733 48.4775 52.7855 48.2351 52.543L35.1859 39.4938L48.2351 26.4547C48.4776 26.2125 48.67 25.9249 48.8012 25.6084C48.9324 25.2918 49 24.9525 49 24.6098C49 24.2671 48.9324 23.9278 48.8012 23.6112C48.67 23.2946 48.4776 23.0071 48.2351 22.7649Z" fill="white"/>
</svg>
